<?xml version="1.0" encoding="iso-8859-1"?>
<!-- Generator: Adobe Illustrator 21.1.0, SVG Export Plug-In . SVG Version: 6.00 Build 0)  -->
<svg version="1.1" xmlns="http://www.w3.org/2000/svg" xmlns:xlink="http://www.w3.org/1999/xlink" x="0px" y="0px"
	 viewBox="0 0 321.58 50.083" style="enable-background:new 0 0 321.58 50.083;" xml:space="preserve">
<g id="Sunshine_Coast">
</g>
<g id="Text" style="display:none;">
	<path style="display:inline;fill:none;" d="M68.796,517.303c6.997,0,12.691-5.693,12.691-12.691
		c0-6.997-5.693-12.691-12.691-12.691c-6.997,0-12.69,5.693-12.69,12.691C56.106,511.609,61.799,517.303,68.796,517.303z"/>
	<path style="display:inline;fill:none;" d="M246.613,517.303c6.998,0,12.691-5.693,12.691-12.691
		c0-6.997-5.693-12.691-12.691-12.691c-6.997,0-12.691,5.693-12.691,12.691C233.922,511.609,239.616,517.303,246.613,517.303z"/>
	<polygon style="display:inline;" points="5.465,514.162 31.075,514.162 31.075,536.401 36.539,536.401 36.539,486.532 
		31.075,486.532 31.075,508.62 5.465,508.62 5.465,486.532 0,486.532 0,536.401 5.465,536.401 	"/>
	<rect x="52.698" y="531.012" style="display:inline;" width="31.742" height="5.389"/>
	<path style="display:inline;" d="M68.796,522.692c9.969,0,18.08-8.11,18.08-18.08c0-9.969-8.11-18.08-18.08-18.08
		c-9.969,0-18.079,8.11-18.079,18.08C50.718,514.581,58.827,522.692,68.796,522.692z M68.796,491.921
		c6.997,0,12.691,5.693,12.691,12.691c0,6.998-5.693,12.691-12.691,12.691c-6.997,0-12.69-5.693-12.69-12.691
		C56.106,497.614,61.799,491.921,68.796,491.921z"/>
	<path style="display:inline;" d="M108.271,514.162h7.783l13.861,22.24h6.369l-14.044-22.472l2.218-0.62
		c4.776-1.334,10.47-4.666,10.47-12.963c0-13.657-15.443-13.814-16.1-13.814h-16.023v6.689l9.865,15.552h-9.865v27.628h5.465
		V514.162z M108.557,491.998h10.272c3.678,0,10.634,1.745,10.634,8.348c0,4.659-3.486,7.777-9.325,8.341l-1.061,0.103
		L108.557,491.998z"/>
	<rect x="151.468" y="486.532" style="display:inline;" width="5.465" height="49.869"/>
	<polygon style="display:inline;" points="173.007,486.318 173.007,491.792 201.749,491.792 174.371,536.253 212.798,536.253 
		212.798,530.781 184.137,530.781 211.44,486.318 	"/>
	<path style="display:inline;" d="M246.613,522.692c9.969,0,18.08-8.11,18.08-18.08c0-9.969-8.11-18.08-18.08-18.08
		c-9.969,0-18.08,8.11-18.08,18.08C228.534,514.581,236.644,522.692,246.613,522.692z M246.613,491.921
		c6.998,0,12.691,5.693,12.691,12.691c0,6.998-5.693,12.691-12.691,12.691c-6.997,0-12.691-5.693-12.691-12.691
		C233.922,497.614,239.616,491.921,246.613,491.921z"/>
	<rect x="230.515" y="531.012" style="display:inline;" width="31.74" height="5.389"/>
	<polygon style="display:inline;" points="286.087,494.721 315.213,536.401 321.58,536.401 321.58,486.532 316.191,486.532 
		316.191,528.2 286.991,486.532 280.622,486.532 280.622,536.401 286.087,536.401 	"/>
	<rect x="-1.228" y="549.967" style="display:inline;fill:none;" width="323.842" height="29.511"/>
	<text transform="matrix(1 0 0 1 -1.2277 567.0072)" style="display:inline;"><tspan x="0" y="0" style="font-family:'SceneAltMedium'; font-size:24px; letter-spacing:3;">10 A</tspan><tspan x="56.975" y="0" style="font-family:'SceneAltMedium'; font-size:24px; letter-spacing:3;">R</tspan><tspan x="73.246" y="0" style="font-family:'SceneAltMedium'; font-size:24px; letter-spacing:3;">T</tspan><tspan x="88.175" y="0" style="font-family:'SceneAltMedium'; font-size:24px; letter-spacing:3;">S</tspan><tspan x="103.27" y="0" style="font-family:'SceneAltMedium'; font-size:24px; letter-spacing:3;">-FUELLED </tspan><tspan x="233.491" y="0" style="font-family:'SceneAltMedium'; font-size:24px; letter-spacing:2;">D</tspan><tspan x="252.283" y="0" style="font-family:'SceneAltMedium'; font-size:24px; letter-spacing:1;">A</tspan><tspan x="268.22" y="0" style="font-family:'SceneAltMedium'; font-size:24px; letter-spacing:2;">Y</tspan><tspan x="284.036" y="0" style="font-family:'SceneAltMedium'; font-size:24px; letter-spacing:3;">S</tspan><tspan x="299.012" y="0" style="font-family:'SceneAltMedium'; font-size:24px; letter-spacing:2;"> </tspan></text>
	<rect x="-26.428" y="109.843" style="display:inline;fill:none;" width="26.22" height="22.677"/>
	<rect x="321.786" y="110.035" style="display:inline;fill:none;" width="26.22" height="22.677"/>
	<rect x="321.505" y="214.481" style="display:inline;fill:none;" width="26.22" height="22.677"/>
	<rect x="-26.428" y="-22.739" style="display:inline;fill:none;" width="26.22" height="22.677"/>
	<rect x="321.786" y="-22.547" style="display:inline;fill:none;" width="26.22" height="22.677"/>
	<rect x="321.505" y="50.121" style="display:inline;fill:none;" width="26.22" height="22.677"/>
	<rect x="321.516" y="463.81" style="display:inline;fill:none;" width="26.22" height="22.677"/>
	<rect x="321.507" y="569.656" style="display:inline;fill:none;" width="26.22" height="22.677"/>
	<rect x="-1.228" y="1059.147" style="display:inline;fill:none;" width="324.863" height="29.511"/>
	<text transform="matrix(1 0 0 1 -1.2277 1076.1866)" style="display:inline;"><tspan x="0" y="0" style="font-family:'SceneAltMedium'; font-size:24px; letter-spacing:3;">10 A</tspan><tspan x="56.975" y="0" style="font-family:'SceneAltMedium'; font-size:24px; letter-spacing:3;">R</tspan><tspan x="73.246" y="0" style="font-family:'SceneAltMedium'; font-size:24px; letter-spacing:3;">T</tspan><tspan x="88.175" y="0" style="font-family:'SceneAltMedium'; font-size:24px; letter-spacing:3;">S</tspan><tspan x="103.27" y="0" style="font-family:'SceneAltMedium'; font-size:24px; letter-spacing:3;">-FUELLED </tspan><tspan x="233.491" y="0" style="font-family:'SceneAltMedium'; font-size:24px; letter-spacing:2;">D</tspan><tspan x="252.283" y="0" style="font-family:'SceneAltMedium'; font-size:24px; letter-spacing:1;">A</tspan><tspan x="268.22" y="0" style="font-family:'SceneAltMedium'; font-size:24px; letter-spacing:2;">Y</tspan><tspan x="284.036" y="0" style="font-family:'SceneAltMedium'; font-size:24px; letter-spacing:3;">S</tspan><tspan x="299.012" y="0" style="font-family:'SceneAltMedium'; font-size:24px; letter-spacing:2;"> </tspan></text>
	<rect x="321.516" y="1036.94" style="display:inline;fill:none;" width="26.22" height="22.677"/>
	<rect x="321.507" y="1077.686" style="display:inline;fill:none;" width="26.22" height="22.677"/>
	<path style="display:inline;fill:none;" d="M68.796,683.3c6.997,0,12.691-5.693,12.691-12.691c0-6.997-5.693-12.691-12.691-12.691
		c-6.997,0-12.69,5.693-12.69,12.691C56.106,677.606,61.799,683.3,68.796,683.3z"/>
	<path style="display:inline;fill:none;" d="M246.613,683.3c6.998,0,12.691-5.693,12.691-12.691c0-6.997-5.693-12.691-12.691-12.691
		c-6.997,0-12.691,5.693-12.691,12.691C233.922,677.606,239.616,683.3,246.613,683.3z"/>
	<polygon style="display:inline;" points="5.465,680.158 31.075,680.158 31.075,702.398 36.539,702.398 36.539,652.529 
		31.075,652.529 31.075,674.616 5.465,674.616 5.465,652.529 0,652.529 0,702.398 5.465,702.398 	"/>
	<rect x="52.698" y="697.009" style="display:inline;" width="31.742" height="5.389"/>
	<path style="display:inline;" d="M68.796,688.688c9.969,0,18.08-8.11,18.08-18.08c0-9.969-8.11-18.08-18.08-18.08
		c-9.969,0-18.079,8.11-18.079,18.08C50.718,680.578,58.827,688.688,68.796,688.688z M68.796,657.918
		c6.997,0,12.691,5.693,12.691,12.691c0,6.998-5.693,12.691-12.691,12.691c-6.997,0-12.69-5.693-12.69-12.691
		C56.106,663.611,61.799,657.918,68.796,657.918z"/>
	<path style="display:inline;" d="M108.271,680.158h7.783l13.861,22.24h6.369l-14.044-22.472l2.218-0.62
		c4.776-1.334,10.47-4.666,10.47-12.963c0-13.657-15.443-13.814-16.1-13.814h-16.023v6.689l9.865,15.552h-9.865v27.628h5.465
		V680.158z M108.557,657.995h10.272c3.678,0,10.634,1.745,10.634,8.348c0,4.659-3.486,7.777-9.325,8.341l-1.061,0.103
		L108.557,657.995z"/>
	<rect x="151.468" y="652.529" style="display:inline;" width="5.465" height="49.869"/>
	<polygon style="display:inline;" points="173.007,652.315 173.007,657.788 201.749,657.788 174.371,702.25 212.798,702.25 
		212.798,696.777 184.137,696.777 211.44,652.315 	"/>
	<path style="display:inline;" d="M246.613,688.688c9.969,0,18.08-8.11,18.08-18.08c0-9.969-8.11-18.08-18.08-18.08
		c-9.969,0-18.08,8.11-18.08,18.08C228.534,680.578,236.644,688.688,246.613,688.688z M246.613,657.918
		c6.998,0,12.691,5.693,12.691,12.691c0,6.998-5.693,12.691-12.691,12.691c-6.997,0-12.691-5.693-12.691-12.691
		C233.922,663.611,239.616,657.918,246.613,657.918z"/>
	<rect x="230.515" y="697.009" style="display:inline;" width="31.74" height="5.389"/>
	<polygon style="display:inline;" points="286.087,660.717 315.213,702.398 321.58,702.398 321.58,652.529 316.191,652.529 
		316.191,694.197 286.991,652.529 280.622,652.529 280.622,702.398 286.087,702.398 	"/>
	<rect x="321.516" y="629.415" style="display:inline;fill:none;" width="26.22" height="22.677"/>
	<rect x="321.507" y="727.156" style="display:inline;fill:none;" width="26.22" height="22.677"/>
	<g style="display:inline;">
		<path d="M168.738,405.379h-1.119v-16.185h1.119"/>
	</g>
	<rect x="-0.476" y="196.941" style="display:inline;fill:none;" width="325.2" height="24.5"/>
	<text transform="matrix(1 0 0 1 -0.4761 211.8516)" style="display:inline;"><tspan x="0" y="0" style="font-family:'SceneAltMedium'; font-size:21px; letter-spacing:11;">SUNSHINE </tspan><tspan x="198.804" y="0" style="font-family:'SceneAltMedium'; font-size:21px; letter-spacing:11;">C</tspan><tspan x="222.03" y="0" style="font-family:'SceneAltMedium'; font-size:21px; letter-spacing:11;">O</tspan><tspan x="247.692" y="0" style="font-family:'SceneAltMedium'; font-size:21px; letter-spacing:11;">AST</tspan></text>
	<rect x="-0.476" y="361.431" style="display:inline;fill:none;" width="325.2" height="24.5"/>
	<text transform="matrix(1 0 0 1 -0.4761 376.3415)" style="display:inline;"><tspan x="0" y="0" style="font-family:'SceneAltMedium'; font-size:21px; letter-spacing:11;">SUNSHINE </tspan><tspan x="198.804" y="0" style="font-family:'SceneAltMedium'; font-size:21px; letter-spacing:11;">C</tspan><tspan x="222.03" y="0" style="font-family:'SceneAltMedium'; font-size:21px; letter-spacing:11;">O</tspan><tspan x="247.692" y="0" style="font-family:'SceneAltMedium'; font-size:21px; letter-spacing:11;">AST</tspan></text>
	<rect x="-26.428" y="274.243" style="display:inline;fill:none;" width="26.22" height="22.677"/>
	<rect x="321.786" y="403.371" style="display:inline;fill:none;" width="26.22" height="22.677"/>
	<rect x="321.786" y="274.435" style="display:inline;fill:none;" width="26.22" height="22.677"/>
	<g style="display:inline;">
		<rect x="171.737" y="716.265" style="fill:none;" width="150.877" height="24.5"/>
		<text transform="matrix(1 0 0 1 200.0621 726.2041)"><tspan x="0" y="0" style="font-family:'SceneAltMedium'; font-size:14px;">24 </tspan><tspan x="17.751" y="0" style="font-family:'SceneAltMedium'; font-size:14px;">A</tspan><tspan x="26.067" y="0" style="font-family:'SceneAltMedium'; font-size:14px;">UG - 2 SEP  2018</tspan></text>
		<rect x="-1.228" y="716.265" style="fill:none;" width="164" height="24.5"/>
		<text transform="matrix(1 0 0 1 -1.2277 726.2041)"><tspan x="0" y="0" style="font-family:'SceneAltMedium'; font-size:14px;">10 A</tspan><tspan x="26.459" y="0" style="font-family:'SceneAltMedium'; font-size:14px;">R</tspan><tspan x="34.258" y="0" style="font-family:'SceneAltMedium'; font-size:14px;">T</tspan><tspan x="41.271" y="0" style="font-family:'SceneAltMedium'; font-size:14px;">S</tspan><tspan x="48.384" y="0" style="font-family:'SceneAltMedium'; font-size:14px;">-FUELLED </tspan><tspan x="109.1" y="0" style="font-family:'SceneAltMedium'; font-size:14px;">D</tspan><tspan x="118.368" y="0" style="font-family:'SceneAltMedium'; font-size:14px;">A</tspan><tspan x="125.97" y="0" style="font-family:'SceneAltMedium'; font-size:14px;">Y</tspan><tspan x="133.503" y="0" style="font-family:'SceneAltMedium'; font-size:14px;">S</tspan></text>
		<path d="M168.738,729.617h-1.119v-16.185h1.119V729.617z"/>
	</g>
	<rect x="321.516" y="944.364" style="display:inline;fill:none;" width="26.22" height="22.677"/>
	<rect x="-25.871" y="944.364" style="display:inline;fill:none;" width="26.22" height="22.677"/>
	<rect x="-25.871" y="1036.438" style="display:inline;fill:none;" width="26.22" height="22.677"/>
	<rect x="321.507" y="977.21" style="display:inline;fill:none;" width="26.22" height="22.677"/>
	<g style="display:inline;">
		<rect x="171.737" y="966.152" style="fill:none;" width="150.877" height="24.5"/>
		<text transform="matrix(1 0 0 1 200.0621 976.0912)"><tspan x="0" y="0" style="font-family:'SceneAltMedium'; font-size:14px;">24 </tspan><tspan x="17.751" y="0" style="font-family:'SceneAltMedium'; font-size:14px;">A</tspan><tspan x="26.067" y="0" style="font-family:'SceneAltMedium'; font-size:14px;">UG - 2 SEP  2018</tspan></text>
		<rect x="-1.228" y="966.152" style="fill:none;" width="164" height="24.5"/>
		<text transform="matrix(1 0 0 1 -1.2277 976.0912)"><tspan x="0" y="0" style="font-family:'SceneAltMedium'; font-size:14px;">10 A</tspan><tspan x="26.459" y="0" style="font-family:'SceneAltMedium'; font-size:14px;">R</tspan><tspan x="34.258" y="0" style="font-family:'SceneAltMedium'; font-size:14px;">T</tspan><tspan x="41.271" y="0" style="font-family:'SceneAltMedium'; font-size:14px;">S</tspan><tspan x="48.384" y="0" style="font-family:'SceneAltMedium'; font-size:14px;">-FUELLED </tspan><tspan x="109.1" y="0" style="font-family:'SceneAltMedium'; font-size:14px;">D</tspan><tspan x="118.368" y="0" style="font-family:'SceneAltMedium'; font-size:14px;">A</tspan><tspan x="125.97" y="0" style="font-family:'SceneAltMedium'; font-size:14px;">Y</tspan><tspan x="133.503" y="0" style="font-family:'SceneAltMedium'; font-size:14px;">S</tspan></text>
		<path d="M168.738,979.504h-1.119v-16.185h1.119V979.504z"/>
	</g>
	<path style="display:inline;fill:none;" d="M68.796,840.774c6.997,0,12.691-5.693,12.691-12.691
		c0-6.997-5.693-12.691-12.691-12.691c-6.997,0-12.69,5.693-12.69,12.691C56.106,835.081,61.799,840.774,68.796,840.774z"/>
	<path style="display:inline;fill:none;" d="M246.613,840.774c6.998,0,12.691-5.693,12.691-12.691
		c0-6.997-5.693-12.691-12.691-12.691c-6.997,0-12.691,5.693-12.691,12.691C233.922,835.081,239.616,840.774,246.613,840.774z"/>
	<polygon style="display:inline;" points="5.465,837.633 31.075,837.633 31.075,859.872 36.539,859.872 36.539,810.004 
		31.075,810.004 31.075,832.091 5.465,832.091 5.465,810.004 0,810.004 0,859.872 5.465,859.872 	"/>
	<rect x="52.698" y="854.484" style="display:inline;" width="31.742" height="5.389"/>
	<path style="display:inline;" d="M68.796,846.163c9.969,0,18.08-8.11,18.08-18.08c0-9.969-8.11-18.08-18.08-18.08
		c-9.969,0-18.079,8.11-18.079,18.08C50.718,838.053,58.827,846.163,68.796,846.163z M68.796,815.392
		c6.997,0,12.691,5.693,12.691,12.691c0,6.998-5.693,12.691-12.691,12.691c-6.997,0-12.69-5.693-12.69-12.691
		C56.106,821.086,61.799,815.392,68.796,815.392z"/>
	<path style="display:inline;" d="M108.271,837.633h7.783l13.861,22.24h6.369l-14.044-22.472l2.218-0.62
		c4.776-1.334,10.47-4.666,10.47-12.963c0-13.657-15.443-13.814-16.1-13.814h-16.023v6.689l9.865,15.552h-9.865v27.628h5.465
		V837.633z M108.557,815.47h10.272c3.678,0,10.634,1.745,10.634,8.348c0,4.659-3.486,7.777-9.325,8.341l-1.061,0.103L108.557,815.47
		z"/>
	<rect x="151.468" y="810.004" style="display:inline;" width="5.465" height="49.869"/>
	<polygon style="display:inline;" points="173.007,809.79 173.007,815.263 201.749,815.263 174.371,859.724 212.798,859.724 
		212.798,854.252 184.137,854.252 211.44,809.79 	"/>
	<path style="display:inline;" d="M246.613,846.163c9.969,0,18.08-8.11,18.08-18.08c0-9.969-8.11-18.08-18.08-18.08
		c-9.969,0-18.08,8.11-18.08,18.08C228.534,838.053,236.644,846.163,246.613,846.163z M246.613,815.392
		c6.998,0,12.691,5.693,12.691,12.691c0,6.998-5.693,12.691-12.691,12.691c-6.997,0-12.691-5.693-12.691-12.691
		C233.922,821.086,239.616,815.392,246.613,815.392z"/>
	<rect x="230.515" y="854.484" style="display:inline;" width="31.74" height="5.389"/>
	<polygon style="display:inline;" points="286.087,818.192 315.213,859.872 321.58,859.872 321.58,810.004 316.191,810.004 
		316.191,851.671 286.991,810.004 280.622,810.004 280.622,859.872 286.087,859.872 	"/>
	<rect x="321.516" y="786.889" style="display:inline;fill:none;" width="26.22" height="22.677"/>
	<rect x="321.507" y="884.63" style="display:inline;fill:none;" width="26.22" height="22.677"/>
	<rect x="165.968" y="873.739" style="display:inline;fill:none;" width="156.423" height="24.5"/>
	<text transform="matrix(1 0 0 1 185.3054 883.6787)" style="display:inline;"><tspan x="0" y="0" style="font-family:'SceneAltMedium'; font-size:14px; letter-spacing:1;">24 </tspan><tspan x="20.691" y="0" style="font-family:'SceneAltMedium'; font-size:14px;">A</tspan><tspan x="29.988" y="0" style="font-family:'SceneAltMedium'; font-size:14px; letter-spacing:1;">UG - 2 SEP 2018</tspan></text>
	<rect x="-1.228" y="873.739" style="display:inline;fill:none;" width="148" height="24.5"/>
	<text transform="matrix(1 0 0 1 -1.2277 883.6787)" style="display:inline;"><tspan x="0" y="0" style="font-family:'SceneAltMedium'; font-size:14px; letter-spacing:1;">SUNSHINE </tspan><tspan x="81.255" y="0" style="font-family:'SceneAltMedium'; font-size:14px; letter-spacing:1;">C</tspan><tspan x="91.041" y="0" style="font-family:'SceneAltMedium'; font-size:14px; letter-spacing:1;">O</tspan><tspan x="102.45" y="0" style="font-family:'SceneAltMedium'; font-size:14px; letter-spacing:1;">AST</tspan></text>
	<path style="display:inline;" d="M155.002,887.091h-1.119v-16.185h1.119V887.091z"/>
	<path style="display:inline;fill:none;" d="M68.796,1191.053c6.997,0,12.691-5.693,12.691-12.691
		c0-6.997-5.693-12.691-12.691-12.691c-6.997,0-12.69,5.693-12.69,12.691C56.106,1185.359,61.799,1191.053,68.796,1191.053z"/>
	<rect x="53.516" y="1137.168" style="display:inline;fill:none;" width="26.22" height="22.677"/>
	<rect x="67.903" y="1155.447" style="display:inline;fill:none;" width="26.22" height="22.677"/>
	<g style="display:inline;">
		<rect x="171.737" y="392.027" style="fill:none;" width="150.877" height="24.5"/>
		<text transform="matrix(1 0 0 1 200.0621 401.9665)"><tspan x="0" y="0" style="font-family:'SceneAltMedium'; font-size:14px;">24 </tspan><tspan x="17.751" y="0" style="font-family:'SceneAltMedium'; font-size:14px;">A</tspan><tspan x="26.067" y="0" style="font-family:'SceneAltMedium'; font-size:14px;">UG - 2 SEP  2018</tspan></text>
		<rect x="-1.228" y="392.027" style="fill:none;" width="164" height="24.5"/>
		<text transform="matrix(1 0 0 1 -1.2277 401.9665)"><tspan x="0" y="0" style="font-family:'SceneAltMedium'; font-size:14px;">10 A</tspan><tspan x="26.459" y="0" style="font-family:'SceneAltMedium'; font-size:14px;">R</tspan><tspan x="34.258" y="0" style="font-family:'SceneAltMedium'; font-size:14px;">T</tspan><tspan x="41.271" y="0" style="font-family:'SceneAltMedium'; font-size:14px;">S</tspan><tspan x="48.384" y="0" style="font-family:'SceneAltMedium'; font-size:14px;">-FUELLED </tspan><tspan x="109.1" y="0" style="font-family:'SceneAltMedium'; font-size:14px;">D</tspan><tspan x="118.368" y="0" style="font-family:'SceneAltMedium'; font-size:14px;">A</tspan><tspan x="125.97" y="0" style="font-family:'SceneAltMedium'; font-size:14px;">Y</tspan><tspan x="133.503" y="0" style="font-family:'SceneAltMedium'; font-size:14px;">S</tspan></text>
		<path d="M168.738,405.379h-1.119v-16.185h1.119V405.379z"/>
	</g>
</g>
<g id="Text_x5F_OL">
</g>
<g id="Horizon">
	<g>
		<path style="fill:none;" d="M68.796,30.985c6.997,0,12.691-5.693,12.691-12.691c0-6.997-5.693-12.691-12.691-12.691
			c-6.997,0-12.69,5.693-12.69,12.691C56.106,25.291,61.799,30.985,68.796,30.985z"/>
		<path style="fill:none;" d="M246.613,30.985c6.998,0,12.691-5.693,12.691-12.691c0-6.997-5.693-12.691-12.691-12.691
			c-6.997,0-12.691,5.693-12.691,12.691C233.922,25.291,239.616,30.985,246.613,30.985z"/>
		<polygon points="5.465,27.843 31.075,27.843 31.075,50.083 36.539,50.083 36.539,0.214 31.075,0.214 31.075,22.301 5.465,22.301 
			5.465,0.214 0,0.214 0,50.083 5.465,50.083 		"/>
		<rect x="52.698" y="44.694" width="31.742" height="5.389"/>
		<path d="M68.796,36.373c9.969,0,18.08-8.11,18.08-18.08c0-9.969-8.11-18.08-18.08-18.08c-9.969,0-18.079,8.11-18.079,18.08
			C50.718,28.263,58.827,36.373,68.796,36.373z M68.796,5.603c6.997,0,12.691,5.693,12.691,12.691
			c0,6.998-5.693,12.691-12.691,12.691c-6.997,0-12.69-5.693-12.69-12.691C56.106,11.296,61.799,5.603,68.796,5.603z"/>
		<path d="M108.271,27.843h7.783l13.861,22.24h6.369L122.24,27.611l2.218-0.62c4.776-1.334,10.47-4.666,10.47-12.963
			c0-13.657-15.443-13.814-16.1-13.814h-16.023v6.689l9.865,15.552h-9.865v27.628h5.465V27.843z M108.557,5.68h10.272
			c3.678,0,10.634,1.745,10.634,8.348c0,4.659-3.486,7.777-9.325,8.341l-1.061,0.103L108.557,5.68z"/>
		<rect x="151.468" y="0.214" width="5.465" height="49.869"/>
		<polygon points="173.007,0 173.007,5.473 201.749,5.473 174.371,49.935 212.798,49.935 212.798,44.462 184.137,44.462 211.44,0 		
			"/>
		<path d="M246.613,36.373c9.969,0,18.08-8.11,18.08-18.08c0-9.969-8.11-18.08-18.08-18.08c-9.969,0-18.08,8.11-18.08,18.08
			C228.534,28.263,236.644,36.373,246.613,36.373z M246.613,5.603c6.998,0,12.691,5.693,12.691,12.691
			c0,6.998-5.693,12.691-12.691,12.691c-6.997,0-12.691-5.693-12.691-12.691C233.922,11.296,239.616,5.603,246.613,5.603z"/>
		<rect x="230.515" y="44.694" width="31.74" height="5.389"/>
		<polygon points="286.087,8.402 315.213,50.083 321.58,50.083 321.58,0.214 316.191,0.214 316.191,41.882 286.991,0.214 
			280.622,0.214 280.622,50.083 286.087,50.083 		"/>
		<path style="fill:none;" d="M68.796,30.985c6.997,0,12.691-5.693,12.691-12.691c0-6.997-5.693-12.691-12.691-12.691
			c-6.997,0-12.69,5.693-12.69,12.691C56.106,25.291,61.799,30.985,68.796,30.985z"/>
		<path style="fill:none;" d="M246.613,30.985c6.998,0,12.691-5.693,12.691-12.691c0-6.997-5.693-12.691-12.691-12.691
			c-6.997,0-12.691,5.693-12.691,12.691C233.922,25.291,239.616,30.985,246.613,30.985z"/>
		<polygon points="5.465,27.843 31.075,27.843 31.075,50.083 36.539,50.083 36.539,0.214 31.075,0.214 31.075,22.301 5.465,22.301 
			5.465,0.214 0,0.214 0,50.083 5.465,50.083 		"/>
		<rect x="52.698" y="44.694" width="31.742" height="5.389"/>
		<path d="M68.796,36.373c9.969,0,18.08-8.11,18.08-18.08c0-9.969-8.11-18.08-18.08-18.08c-9.969,0-18.079,8.11-18.079,18.08
			C50.718,28.263,58.827,36.373,68.796,36.373z M68.796,5.603c6.997,0,12.691,5.693,12.691,12.691
			c0,6.998-5.693,12.691-12.691,12.691c-6.997,0-12.69-5.693-12.69-12.691C56.106,11.296,61.799,5.603,68.796,5.603z"/>
		<path d="M108.271,27.843h7.783l13.861,22.24h6.369L122.24,27.611l2.218-0.62c4.776-1.334,10.47-4.666,10.47-12.963
			c0-13.657-15.443-13.814-16.1-13.814h-16.023v6.689l9.865,15.552h-9.865v27.628h5.465V27.843z M108.557,5.68h10.272
			c3.678,0,10.634,1.745,10.634,8.348c0,4.659-3.486,7.777-9.325,8.341l-1.061,0.103L108.557,5.68z"/>
		<rect x="151.468" y="0.214" width="5.465" height="49.869"/>
		<polygon points="173.007,0 173.007,5.473 201.749,5.473 174.371,49.935 212.798,49.935 212.798,44.462 184.137,44.462 211.44,0 		
			"/>
		<path d="M246.613,36.373c9.969,0,18.08-8.11,18.08-18.08c0-9.969-8.11-18.08-18.08-18.08c-9.969,0-18.08,8.11-18.08,18.08
			C228.534,28.263,236.644,36.373,246.613,36.373z M246.613,5.603c6.998,0,12.691,5.693,12.691,12.691
			c0,6.998-5.693,12.691-12.691,12.691c-6.997,0-12.691-5.693-12.691-12.691C233.922,11.296,239.616,5.603,246.613,5.603z"/>
		<rect x="230.515" y="44.694" width="31.74" height="5.389"/>
		<polygon points="286.087,8.402 315.213,50.083 321.58,50.083 321.58,0.214 316.191,0.214 316.191,41.882 286.991,0.214 
			280.622,0.214 280.622,50.083 286.087,50.083 		"/>
	</g>
</g>
</svg>
