<svg xmlns="http://www.w3.org/2000/svg" viewBox="0 0 389.891 90.797"><g fill="#fff"><path d="M62.273 72.625v-.672L50.349 41.604 24.711 60.012 34.906 28.31l-33.277-.533L27.956 8.024.004 0 0 72.627l62.273-.002z"/><path d="M62.276 3.93l-.003 68.682.599.001 12.066-31.016 24.875 18.415-9.1-31.64 32.182-.595L100.083 8.07 124.481.051H46.07L62.276 3.93z"/><path d="M121.01 72.625l3.88-16.276.003 34.446-62.618.002V72.623l58.735.002zm228.12-58.672l2.513-2.94.554-.033v5.231h3.945v.804l-3.945.942v8.149c0 2.124.212 3.157 2.186 3.157.485 0 1.002-.061 1.427-.243v1.761c-.607.152-1.427.212-2.125.212-2.884 0-4.554-.88-4.554-3.673v-9.363h-2.307V16.21h2.307v-2.257h-.001z"/><path d="M384.317 28.793c-.914.427-1.83.61-2.775.61-4.36 0-5.642-4.757-5.642-7.624h8.692c0-2.805-.885-5.946-5.581-5.946-4.574 0-6.19 2.928-6.19 6.953 0 5.855 3.232 8.234 7.258 8.234 1.83 0 2.958-.305 4.238-.824v-1.403zm-8.325-8.417c.061-.823.519-3.263 2.897-3.263 2.287 0 2.684 2.135 2.684 3.263h-5.581z" fill-rule="evenodd" clip-rule="evenodd"/><path d="M358.509 30.684V10.648l-1.695-.608v-.41l4.777.002-.002 9.982c.549-1.067 1.951-3.781 5.153-3.781 2.561 0 3.66 2.134 3.66 4.239v10.612h-3.08v-9.087c0-1.83-.275-3.476-1.83-3.476-3.05 0-3.903 4.757-3.903 6.556v6.008h-3.08v-.001z"/><path d="M234.385 28.005a9.245 9.245 0 0 1-3.99.877c-6.271 0-8.112-6.84-8.112-10.962h12.497c0-4.034-1.271-8.55-8.024-8.55-6.577 0-8.901 4.209-8.901 9.997 0 8.418 4.648 11.838 10.436 11.838 2.631 0 4.254-.438 6.096-1.184v-2.016h-.002zm-11.971-12.101c.088-1.184.745-4.691 4.165-4.691 3.289 0 3.859 3.069 3.859 4.691h-8.024z" fill-rule="evenodd" clip-rule="evenodd"/><path d="M279.468 6.621l3.626-4.242.799-.048V9.88h5.694v1.129l-5.694 1.351v11.8c0 3.066.307 4.556 3.154 4.556.7 0 1.445-.088 2.059-.35v2.54c-.876.219-2.059.307-3.066.307-4.161 0-6.571-1.271-6.571-5.3V12.359h-3.329v-2.48h3.329V6.621h-.001zm-15.586 3.583v3.771c-1.491-1.009-3.157-2.061-5.262-2.061-1.403 0-2.982.614-2.982 2.192 0 3.771 9.56 4.122 9.56 10.786 0 4.473-3.509 6.314-7.936 6.314-2.675 0-4.517-.57-5.569-.92l-.001-5.732h.567l.643 2.434c1.217.717 2.794 1.412 4.579 1.412 2.543 0 3.596-1.315 3.596-2.631 0-3.683-9.427-4.428-9.427-10.392 0-3.157 2.104-6.007 7.322-6.007 2.235.001 4.164.615 4.91.834zm-57.649 20.52l-6.988-18.376-2.726-1.515v-.986l6.469.006 5.394 14.908 4.999-14.908h4.078l-7.367 20.871h-3.859z"/><path d="M293.145 9.867l5.481 14.908 4.999-14.908h4.165l-10.742 30.254h-3.553l3.07-9.164-8.134-21.091 4.714.001zM192.282 5.629c1.576 0 2.927-1.261 2.927-2.837 0-1.577-1.351-2.792-2.882-2.792-1.576 0-2.837 1.261-2.837 2.792-.001 1.577 1.261 2.837 2.792 2.837zm-2.045 25.095V12.506l-2.997-1.664v-.987l7.426-.002v20.871h-4.429zm81.034-25.095c1.576 0 2.928-1.261 2.928-2.837 0-1.577-1.352-2.792-2.883-2.792-1.576 0-2.837 1.261-2.837 2.792 0 1.577 1.26 2.837 2.792 2.837zm-2.045 25.095V12.506l-2.997-1.664v-.987l7.425-.002v20.871h-4.428zm-30.854 0V12.435l-2.866-1.591v-.987l7.295-.004v5.306c1.49-2.806 3.025-5.481 6.84-5.788v4.604c-4.253.131-6.84 1.578-6.84 7.191v9.558h-4.429zM163.483.288V19.8c0 5.524-.921 11.225-10.26 11.225-9.34 0-10.261-5.7-10.261-11.225V2.414l-4.838-1.305-.001-.823 9.664.001v19.512c0 4.823.351 8.594 5.437 8.594s5.437-3.771 5.437-8.594V.288h4.822zm5.095 30.436V12.509l-3.003-1.667v-.987l7.431-.002v4.955c.79-1.535 2.807-5.437 7.411-5.437 3.683 0 5.262 3.069 5.262 6.095v15.258h-4.429V17.658c0-2.631-.395-4.999-2.631-4.999-4.385 0-5.613 6.84-5.613 9.427v8.638h-4.428z"/><path d="M321.334 31.006c4.27 0 6.435-2.684 6.435-7.593 0-4.91-2.165-7.593-6.435-7.593-4.269 0-6.404 2.684-6.404 7.593s2.135 7.593 6.404 7.593zm-3.05-7.593c0-2.653.336-6.312 3.05-6.312 2.744 0 3.08 3.659 3.08 6.312 0 2.653-.336 6.312-3.08 6.312-2.714 0-3.05-3.66-3.05-6.312z" fill-rule="evenodd" clip-rule="evenodd"/><path d="M331.141 30.67h3.08V17.941h4.117v-1.786h-4.117v-1.739c0-1.555.305-3.354 2.806-3.354 1.25 0 2.074.396 2.714.67V9.629a15.254 15.254 0 0 0-3.08-.335c-4.879 0-5.52 2.805-5.52 5.489v1.372h-2.531v1.786h2.531V30.67z"/><path d="M289.915 68.869a9.262 9.262 0 0 1-3.99.877c-6.271 0-8.111-6.84-8.111-10.962h12.496c0-4.033-1.272-8.55-8.023-8.55-6.577 0-8.901 4.209-8.901 9.997 0 8.418 4.647 11.839 10.435 11.839 2.631 0 4.253-.439 6.095-1.185v-2.016h-.001zm-11.971-12.102c.088-1.184.746-4.691 4.166-4.691 3.289 0 3.858 3.069 3.858 4.691h-8.024z" fill-rule="evenodd" clip-rule="evenodd"/><path d="M158.441 41.446v4.165c-1.096-.614-4.209-2.061-7.498-2.061-2.675 0-4.56 1.535-4.56 3.815 0 6.357 14.251 6.183 14.251 15.653 0 6.357-4.911 8.857-11.006 8.857-3.42 0-6.753-.789-7.673-1.14v-8.424l.813.001 1.276 4.818c1.697.779 4.004 1.588 6.33 1.588 3.157 0 5.437-1.315 5.437-4.385 0-6.928-14.25-6.489-14.25-15.916 0-4.911 3.639-7.761 9.91-7.761 2.804.001 5.786.571 6.97.79zm17.637 11.822l-2.998-1.664v-.987l7.426-.002v20.871h-4.473v-4.955c-.789 1.535-2.763 5.438-7.367 5.438-3.683 0-5.262-3.069-5.262-6.095l.006-12.606-2.998-1.664v-.987l7.42-.002v13.066c0 2.631.395 4.998 2.631 4.998 4.385 0 5.612-6.84 5.612-9.427l.003-5.984zm9.326 18.256V53.309l-3.002-1.667v-.986l7.432-.003v4.954c.789-1.534 2.806-5.437 7.41-5.437 3.684 0 5.262 3.069 5.262 6.095v15.259h-4.429V58.458c0-2.631-.395-4.998-2.63-4.998-4.385 0-5.612 6.84-5.612 9.427v8.638h-4.431v-.001zm32.737-20.676v3.771c-1.49-1.008-3.157-2.061-5.262-2.061-1.402 0-2.981.614-2.981 2.192 0 3.771 9.559 4.122 9.559 10.786 0 4.473-3.508 6.314-7.937 6.314a16.77 16.77 0 0 1-5.568-.921l-.001-5.731h.567l.643 2.434c1.217.717 2.794 1.412 4.579 1.412 2.543 0 3.596-1.315 3.596-2.631 0-3.683-9.428-4.429-9.428-10.392 0-3.156 2.104-6.007 7.322-6.007 2.236.001 4.166.615 4.911.834zm3.983 20.676V43.692l-3.07-1.675v-.745l7.5-.001v14.338c.789-1.535 2.806-5.438 7.41-5.438 3.683 0 5.262 3.069 5.262 6.095v15.259h-4.429V58.458c0-2.631-.395-4.998-2.631-4.998-4.385 0-5.612 6.84-5.612 9.427v8.638h-4.43v-.001zm31.244 0V53.309l-3.002-1.667v-.986l7.431-.003v4.954c.789-1.534 2.807-5.437 7.41-5.437 3.684 0 5.262 3.069 5.262 6.095v15.259h-4.429V58.458c0-2.631-.395-4.998-2.631-4.998-4.385 0-5.612 6.84-5.612 9.427v8.638h-4.429v-.001zm-7.49-25.554c1.576 0 2.928-1.261 2.928-2.837 0-1.576-1.352-2.792-2.883-2.792-1.576 0-2.837 1.261-2.837 2.792 0 1.576 1.261 2.837 2.792 2.837z"/><path fill-rule="evenodd" clip-rule="evenodd" d="M244.037 71.524V53.307l-2.997-1.665v-.986l7.426-.003v20.871h-4.429z"/><path d="M313.434 40.809c3.33 0 6.575.769 7.472 1.11v8.203l-.841-.178-1.437-5.088a14.972 14.972 0 0 0-3.175-.992c-1.14-.222-1.743-.309-3.028-.269-5.484.167-6.445 7.269-6.445 11.449 0 6.75 1.611 13.717 8.317 13.717 3.658 0 5.966-1.916 7.228-2.874v4.093c-1.611.958-4.137 1.916-8.012 1.916-9.275 0-12.628-7.62-12.628-16.067 0-7.089 2.434-14.623 11.072-14.995.001-.001.699-.025 1.477-.025z"/><path d="M332.483 71.97c6.138 0 9.251-3.858 9.251-10.918s-3.113-10.918-9.251-10.918c-6.139 0-9.208 3.858-9.208 10.918s3.07 10.918 9.208 10.918zm-4.384-10.918c0-3.814.482-9.076 4.385-9.076 3.945 0 4.428 5.262 4.428 9.076 0 3.814-.483 9.076-4.428 9.076-3.903 0-4.385-5.262-4.385-9.076zm26.731 10.435h4.428V58.026c0-4.077-.569-7.893-7.366-7.893-6.576 0-7.805 3.289-8.023 6.402h4.647c.176-2.456.658-4.561 3.376-4.561 2.938 0 2.938 3.772 2.938 6.051v1.842c-2.763.132-11.663.438-11.663 6.884 0 2.895 2.411 5.218 5.699 5.218 3.333 0 5.174-2.148 5.876-3.376h.088v2.894zm0-7.322c0 3.552-2.763 5.042-4.298 5.042-1.446 0-2.543-1.228-2.543-3.112 0-3.859 4.999-4.254 6.841-4.385v2.455z" fill-rule="evenodd" clip-rule="evenodd"/><path d="M379.772 47.475l3.626-4.242.798-.048v7.549h5.695v1.129l-5.695 1.351v11.801c0 3.066.307 4.557 3.154 4.557.701 0 1.445-.088 2.059-.352v2.541c-.876.22-2.059.307-3.066.307-4.161 0-6.57-1.271-6.57-5.301V53.213h-3.329v-2.479h3.329v-3.259h-.001zm-5.496 3.663v3.771c-1.491-1.009-3.157-2.062-5.262-2.062-1.403 0-2.981.614-2.981 2.192 0 3.77 9.559 4.122 9.559 10.786 0 4.473-3.508 6.314-7.936 6.314a16.76 16.76 0 0 1-5.568-.921l-.001-5.731h.567l.643 2.434c1.216.717 2.793 1.412 4.578 1.412 2.543 0 3.596-1.315 3.596-2.63 0-3.684-9.427-4.429-9.427-10.393 0-3.157 2.104-6.007 7.322-6.007 2.236.002 4.164.616 4.91.835z"/></g></svg>