<svg xmlns="http://www.w3.org/2000/svg" viewBox="0 0 249.2 203.9"><style>.st0{fill:none;stroke:#000;stroke-miterlimit:10}.st1{fill:#000}</style><path class="st0" d="M222.2 107c-7.2 10.9-27.3 31-50.2 50-27.3 22.7-43.4 31.7-47.3 32-3.9-.4-20.1-9.4-47.5-32.2-23-19.1-43.2-39.1-50.3-49.9-9-13.7-12.7-26-11.9-40.1C16.5 38.3 40.2 15 67.9 15c21.1 0 36.4 17.5 44.7 26.9 4.8 5.5 7.5 8.6 12 8.6 4.6 0 7.6-3.3 13-9.2 9-9.8 24-26.2 43.6-26.2 27.6 0 51.3 23.2 52.9 51.8.8 14.3-2.8 26.3-11.9 40.1z" id="Layer_1"/><path class="st1" d="M249.1 66.1c-.9-17.6-8.4-34.1-20.9-46.5C215.4 7 198.8.1 181.3.1c-26.2 0-44.7 20.2-54.7 31.1-.6.6-1.2 1.3-1.8 1.9-.3-.4-.6-.7-.9-1.1-9.1-10.4-28.1-32-56-32C50.4 0 33.8 6.9 21 19.5 8.4 31.9 1 48.4.1 66c-.9 17.5 3.5 32.6 14.4 49.1 9.8 14.8 35.2 38.2 54 53.8 19.3 16 44.8 35 56.3 35 11.7 0 37-19 56.3-35 18.7-15.5 43.9-38.9 53.8-53.9 7.1-10.9 15.4-26.5 14.2-48.9zM222.2 107c-7.2 10.9-27.3 31-50.2 50-27.3 22.7-43.4 31.7-47.3 32-3.9-.4-20.1-9.4-47.5-32.2-23-19.1-43.2-39.1-50.3-49.9-9-13.7-12.7-26-11.9-40.1C16.5 38.3 40.2 15 67.9 15c21.1 0 36.4 17.5 44.7 26.9 4.8 5.5 7.5 8.6 12 8.6 4.6 0 7.6-3.3 13-9.2 9-9.8 24-26.2 43.6-26.2 27.6 0 51.3 23.2 52.9 51.8.8 14.3-2.8 26.3-11.9 40.1z" id="Layer_2"/></svg>