<?xml version="1.0" standalone="no"?>
<!DOCTYPE svg PUBLIC "-//W3C//DTD SVG 20010904//EN"
 "http://www.w3.org/TR/2001/REC-SVG-20010904/DTD/svg10.dtd">
<svg version="1.0" xmlns="http://www.w3.org/2000/svg"
 width="261.000000pt" height="261.000000pt" viewBox="0 0 261.000000 261.000000"
 preserveAspectRatio="xMidYMid meet">
<metadata>
Created by potrace 1.11, written by Peter Selinger 2001-2013
</metadata>
<g transform="translate(0.000000,261.000000) scale(0.100000,-0.100000)"
fill="#000000" stroke="none">
<path d="M1169 2079 c-108 -25 -193 -73 -274 -153 -152 -151 -203 -325 -161
-543 38 -199 224 -383 434 -433 55 -13 207 -16 241 -5 11 3 30 8 43 10 13 3
60 23 104 45 346 170 428 631 163 911 -141 148 -355 214 -550 168z m207 -169
c127 -28 227 -107 285 -225 32 -65 34 -76 34 -170 0 -92 -3 -106 -31 -165 -40
-83 -87 -136 -157 -178 -202 -121 -456 -50 -566 158 -156 295 112 652 435 580z"/>
<path d="M791 670 c-4 -3 -8 -42 -9 -87 0 -79 1 -83 21 -84 31 0 959 -1 979 0
14 1 16 13 16 86 l-1 85 -31 1 c-135 4 -970 3 -975 -1z"/>
</g>
</svg>
