<svg xmlns="http://www.w3.org/2000/svg" xmlns:xlink="http://www.w3.org/1999/xlink" viewBox="0 0 640 208.561"><path d="M294.145 119.64s-1.574.945-4.881.945c-4.251 0-8.034-2.519-10.081-3.857-2.598-1.732-6.849-4.172-11.1-5.51-8.192 0-13.55-2.288-17.722-7.72-4.177-5.358-6.303-12.285-6.303-20.32 0-11.813 4.492-21.343 12.369-25.594 3.228-1.732 7.242-2.677 11.336-2.677 14.573 0 23.547 10.627 23.547 27.798 0 11.892-4.251 20.792-10.79 25.122 1.501.551 3.626 1.973 4.886 2.755 1.968 1.181 4.33 2.283 6.775 2.283 2.357 0 4.881-.394 4.881-.394l-2.917 7.169m-16.93-49.298c-.866-2.755-3.779-6.932-9.609-6.932-3.7 0-6.927 1.894-8.507 4.807-1.884 3.542-2.755 8.349-2.755 14.962 0 9.451 1.579 15.355 4.886 17.717 1.732 1.264 3.936 1.894 6.534 1.894 7.641 0 10.868-5.83 10.868-19.769 0-5.595-.472-9.609-1.417-12.679zm48.886 41.111c-1.338-.945-2.44-2.283-3.149-3.936-2.603 2.519-6.381 3.857-10.632 3.857-5.673 0-10.554-2.676-11.892-6.539-.63-1.811-.866-3.936-.866-8.03V70.971l10.396-1.963v25.909c0 3.621.315 5.51.866 6.613.551 1.102 2.125 1.889 3.7 1.889 2.598 0 5.747-1.889 6.539-3.857v-28.35l10.076-2.125v30.79c0 2.676.871 5.432 2.445 7.326l-7.483 4.25m25.107-17.958v.315c0 6.224 3.07 9.766 8.507 9.766 3.621 0 7.006-1.338 10.234-4.015l4.098 6.298c-4.645 3.784-9.53 5.594-15.198 5.594-11.582 0-19.06-8.192-19.06-20.871 0-7.242 1.496-12.049 5.038-15.985 3.311-3.7 7.326-5.437 12.684-5.437 4.645 0 9.053 1.579 11.656 4.256 3.7 3.779 5.353 9.21 5.353 17.638v2.44h-23.312m12.364-8.186c0-2.991-.315-4.571-1.26-6.066-1.023-1.574-2.519-2.362-4.645-2.362-4.02 0-6.303 3.149-6.303 8.743v.157h12.207v-.472h.001zm27.459 8.187v.315c0 6.224 3.075 9.766 8.507 9.766 3.621 0 7.016-1.338 10.244-4.015l4.093 6.298c-4.64 3.784-9.535 5.594-15.203 5.594-11.577 0-19.055-8.192-19.055-20.871 0-7.242 1.496-12.049 5.038-15.985 3.311-3.7 7.331-5.437 12.684-5.437 4.649 0 9.048 1.579 11.656 4.256 3.7 3.779 5.353 9.21 5.353 17.638v2.44h-23.317m12.369-8.186c0-2.991-.315-4.571-1.26-6.066-1.028-1.574-2.519-2.362-4.649-2.362-4.02 0-6.298 3.149-6.298 8.743v.157H403.4v-.472zm39.832 25.043V84.127c0-4.566-.787-5.909-3.547-5.909-2.121 0-4.881 1.417-7.321 3.626v28.507h-10.553V81.136c0-3.469-.467-6.775-1.422-9.451l9.383-2.677c.94 1.653 1.486 3.385 1.486 5.038 1.579-1.102 2.923-2.047 4.654-2.991 2.121-1.102 4.881-1.732 7.242-1.732 4.487 0 8.428 2.362 9.688 5.825.546 1.496.787 3.232.787 5.752v29.451h-10.397m33.373 1.26c-4.959 0-10.396-1.574-16.295-4.649l3.774-7.715c3.228 1.968 8.822 4.566 13.387 4.566 2.996 0 5.353-1.968 5.353-4.566 0-2.755-1.963-4.177-6.219-4.964l-4.728-.866c-2.672-.472-5.978-2.362-7.4-4.093-1.422-1.732-2.288-4.649-2.288-7.247 0-7.877 6.229-13.151 15.597-13.151 6.46 0 10.716 1.973 14.416 3.784l-3.469 7.085c-4.02-2.047-6.927-2.913-9.919-2.913-3.075 0-5.122 1.574-5.122 3.936 0 2.047 1.338 3.149 5.038 4.098l4.881 1.26c4.969 1.26 6.622 2.755 8.034 4.566 1.496 1.889 2.209 4.172 2.209 6.849.001 8.347-6.927 14.02-17.249 14.02m35.016-.32c-4.487 0-8.108-2.125-9.368-5.51-.787-2.052-.95-3.311-.95-9.058V66.637c0-5.274-.157-8.502-.551-12.128l10.795-2.44c.394 2.209.546 4.807.546 10.475v31.424c0 6.927.079 7.877.713 8.979.394.708 1.255 1.097 2.121 1.097.394 0 .635 0 1.181-.153l1.82 6.298c-1.82.709-4.019 1.102-6.307 1.102m38.726 1.102c-2.44-1.023-4.64-2.834-5.668-4.881-.787.787-1.653 1.574-2.44 2.125-1.968 1.417-4.807 2.209-8.108 2.209-8.979 0-13.86-4.571-13.86-12.6 0-9.451 6.534-13.865 19.375-13.865.787 0 1.486 0 2.352.079v-1.653c0-4.487-.866-5.983-4.718-5.983-3.39 0-7.321 1.653-11.656 4.566l-4.487-7.557c2.125-1.343 3.7-2.13 6.534-3.311 3.941-1.653 7.321-2.362 11.021-2.362 6.775 0 11.429 2.519 13.004 7.011.546 1.653.777 2.913.699 7.242l-.226 13.545c-.089 4.413.226 6.303 3.774 8.979l-5.596 6.456m-8.974-19.685c-7.321 0-9.84 1.338-9.84 6.14 0 3.154 1.963 5.279 4.644 5.279 1.968 0 3.936-1.023 5.515-2.755l.153-8.664h-.472zm43.38 17.643V84.127c0-4.566-.792-5.909-3.547-5.909-2.135 0-4.881 1.417-7.321 3.626v28.507h-10.563V81.136c0-3.469-.472-6.775-1.412-9.451l9.368-2.677c.945 1.653 1.501 3.385 1.501 5.038 1.574-1.102 2.913-2.047 4.64-2.991 2.135-1.102 4.886-1.732 7.247-1.732 4.487 0 8.428 2.362 9.688 5.825.556 1.496.787 3.232.787 5.752v29.451h-10.388m45.653 0c-.32-.63-.472-1.264-.625-2.362-2.603 2.278-5.678 3.385-9.304 3.385-10.234 0-16.689-7.956-16.689-20.477 0-12.6 7.006-21.264 17.25-21.264 2.908 0 5.196.708 7.169 2.288-.167-.871-.32-3.626-.32-5.988v-13.86l10.475 1.653v41.899c0 9.919.787 13.146 1.501 14.726h-9.457m-2.367-29.692c-1.968-1.732-3.852-2.598-5.747-2.598-4.723 0-6.775 3.936-6.775 12.915 0 8.664 1.82 11.498 7.326 11.498 1.968 0 4.177-1.338 5.196-2.598V80.659zM268.95 187.47c-6.77 0-12.522-2.354-16.62-6.765-4.566-4.968-6.691-11.656-6.691-20.949 0-10.318 2.755-17.644 8.349-22.687 3.857-3.459 8.507-5.112 14.096-5.112 5.752 0 10.711 1.806 14.804 5.353l-2.913 4.015c-4.408-2.986-7.562-4.172-11.734-4.172-6.298 0-11.262 2.913-13.466 9.132-1.422 4.015-2.125 8.59-2.125 13.703 0 7.092 1.338 12.838 3.779 16.384 2.44 3.546 7.956 5.746 13.073 5.746 3.385 0 6.303-.711 8.585-2.124v-16.461h-10.868l-1.26-5.352h18.189v25.196c-3.858 2.517-9.683 4.093-15.198 4.093m42.74.161c-10.79 0-16.93-7.957-16.93-20.872 0-12.762 6.376-20.555 16.694-20.555 6.534 0 10.79 2.991 13.466 6.854 2.44 3.542 3.626 8.186 3.626 14.567 0 13.078-7.011 20.006-16.856 20.006m8.034-31.346c-1.653-3.469-5.117-5.033-8.349-5.033-3.464 0-6.696 1.648-8.034 4.246-1.255 2.44-1.889 5.592-1.889 10.234 0 5.516.95 10.397 2.445 12.838 1.417 2.364 4.566 3.94 7.951 3.94 4.093 0 7.168-2.123 8.507-5.91.866-2.441 1.181-4.641 1.181-8.504-.001-5.507-.552-9.218-1.812-11.811zm33.294 30.714h-6.061l-14.101-39.292 6.303-1.348 9.132 27.014c1.107 3.229 1.894 6.698 1.894 6.698h.157s.63-3.075 1.889-6.611l8.974-26.072h6.539l-14.726 39.611m26.908-18.981v.942c0 3.709.472 6.544 1.811 8.591 2.204 3.383 5.825 4.805 9.766 4.805 3.779 0 6.854-1.182 9.609-3.7l2.357 3.93c-3.459 3.152-8.187 4.882-13.225 4.882-10.868 0-17.407-7.87-17.407-20.862 0-6.621 1.417-10.866 4.728-14.807 3.149-3.7 7.006-5.442 11.729-5.442 4.256 0 7.956 1.501 10.637 4.261 3.385 3.469 4.487 7.169 4.487 16.536v.865l-24.492-.001m16.143-13.386c-1.333-2.125-4.093-3.469-7.085-3.469-5.594 0-8.743 4.103-9.058 12.213h17.958c-.083-4.257-.634-6.85-1.815-8.744zm36.054-1.334c-.394-.162-1.107-.315-1.742-.315-2.352 0-4.713 1.018-6.534 2.834-1.806 1.806-2.278 2.986-2.278 6.216v24.571h-6.15v-30.241c0-5.747-1.333-8.339-1.333-8.339l6.14-1.663s1.501 3.075 1.26 6.381c2.834-4.02 7.016-6.534 11.031-6.534 1.018 0 2.125.394 2.125.394l-2.519 6.696m31.011 33.307v-26.541c0-4.17-.31-5.188-1.412-6.536-.866-1.018-2.519-1.648-4.335-1.648-3.154 0-8.034 2.514-10.868 5.515v29.21h-5.988v-30.239c0-5.594-1.486-8.266-1.486-8.266l5.973-1.653s1.427 2.913 1.427 6.14c4.089-4.093 8.182-6.062 12.364-6.062 4.246 0 8.034 2.273 9.599 5.742.635 1.427.954 3.001.954 4.566v29.771l-6.228.001m61.097 0v-28.984c0-3.774-1.732-5.742-5.038-5.742-3.542 0-6.303 2.283-10.396 6.062v28.664h-6.229v-27.877c0-2.362-.226-3.941-1.092-5.033-.954-1.107-2.209-1.579-4.02-1.579-2.996 0-5.909 1.491-10.002 5.201v29.289h-5.909v-30.397c0-5.668-1.412-8.349-1.412-8.349l5.988-1.412s1.412 3.065 1.412 5.82c2.603-2.908 7.41-5.909 11.415-5.909 3.862 0 7.724 2.367 9.141 6.544 3.784-4.015 8.581-6.544 12.595-6.544 5.835 0 9.85 4.413 9.85 10.637v29.609h-6.303m23.218-18.587v.942c0 3.709.467 6.544 1.806 8.591 2.209 3.383 5.82 4.805 9.761 4.805 3.788 0 6.854-1.182 9.609-3.7l2.367 3.93c-3.469 3.152-8.187 4.882-13.235 4.882-10.868 0-17.402-7.87-17.402-20.862 0-6.621 1.412-10.866 4.728-14.807 3.154-3.7 7.006-5.442 11.734-5.442 4.246 0 7.956 1.501 10.627 4.261 3.39 3.469 4.487 7.169 4.487 16.536v.865l-24.482-.001m16.143-13.386c-1.348-2.125-4.103-3.469-7.095-3.469-5.589 0-8.743 4.103-9.048 12.213h17.948c-.078-4.257-.625-6.85-1.805-8.744zm41.953 31.973v-26.541c0-4.17-.315-5.188-1.422-6.536-.866-1.018-2.519-1.648-4.325-1.648-3.149 0-8.034 2.514-10.868 5.515v29.21h-5.988v-30.239c0-5.594-1.496-8.266-1.496-8.266l5.988-1.653s1.412 2.913 1.412 6.14c4.103-4.093 8.197-6.062 12.364-6.062 4.261 0 8.034 2.273 9.609 5.742.635 1.427.945 3.001.945 4.566v29.771l-6.219.001" fill="#fff"/><defs><path id="a" d="M0 0h640v208.561H0z"/></defs><clipPath id="b"><use xlink:href="#a" overflow="visible"/></clipPath><path d="M638.209 152.039h-8.187v25.273c0 4.334 1.181 5.833 5.033 5.833 1.742 0 2.76-.24 3.862-.788l.866 3.93c-1.968 1.028-4.172 1.576-6.927 1.576-2.047 0-3.621-.394-5.122-1.096-2.76-1.345-3.779-3.863-3.779-7.803v-26.925h-5.122v-4.649h5.122c0-3.779.625-9.929.625-9.929l6.46-1.412s-.787 6.14-.787 11.341h9.85l-1.894 4.649" clip-path="url(#b)" fill="#fff"/><path d="M93.737 68.285c-5.023.276-9.943 6.819-7.857 14.244-.768.29-2.947.246-3.656-1.274-.517 2.416-5.442 5.215-9.033 4.841 1.978-2.14 3.311-6.972 7.188-9.52 3.887-2.573 5.633-4.32 7.011-8.679-1.801.856-11.173 3.272-13.83.389 6.16-.905 13.451-4.349 17.048-6.627l-1.417-1.525c-3.882 2.199-9.038 3.966-11.661 4.802-.93-7.715 6.416-7.41 6.967-5.323 3.036-3.601.9-8.758-1.324-9.319 2.273-6.165 0-9.948-1.938-12.221-.472 6.534-7.769 7.577-8.615 12.595-.29-3.985-.551-14.745-.861-19.995-.566-9.752-12.881-13.161-14.775-13.161-8.048.379-8.802-.659-8.617-4.408-4.072 4.649-2.696 8.768.757 10.765-.476 2.79-4.927 4.964-7.671 5.579 6.537 6.066 14.114 2.465 17.755-.994.271-.251.526-.482.782-.689 1.309 2.298 2.253 6.519 2.253 8.94-6.111-.344-7.198 4.389-7.198 6.101 7.764-3.223 8.615 11.646 10.657 14.061-1.993-.143-5.501-4.733-10.657-5.068-6.219-.403-8.43 2.932-10.943 2.79.483 4.413 5.826 6.873 9.285 7.39-1.756 4.507-.212 7.552 3.459 8.664 0-4.108 5.205-5.392 10.795-2.13 6.686 3.911 10.13 4.266 15.533 2.617-.905 1.929-3.316 2.135-6.298 5.053-4.177 4.113-4.31 9.466-8.95 11.424 5.446 2.598 13.688-1.053 14.873-3.119 2.273 1.412 5.205.561 6.007-.861-3.695-8.187 2.558-13.073 5.023-12.984.001-.001 1.098-2.432-.092-2.358m-28.463-3.37c-2.75-1.137-6.962-1.84-9.328 1.476-1.284-2.229.62-5.594 1.796-6.593-6.012.103-9.418-1.737-10.324-3.547 2.23-1.225 7.864-3.262 12.459.089 3.173 2.337 4.782 3.459 8.522 4.704 1.363-1.368.856-.758 1.274-1.141-3.07-2.14-4.448-18.519-10.465-19.129.856-2.091 3.985-1.894 6.494-1.235.177-3.675-1.328-9.722-3.621-13.215 3.518-1.84 5.914.138 7.119 4.507 1.289 4.615-.231 16.192 2.795 26.608l1.894-1.756c-.945-6.062 5.732-8.285 7.203-11.316.561 4.074-.28 5.929-1.427 7.385 2.421.285 3.508 2.652 3.134 4.315-5.82-.861-9.2 4.994-7.907 9.604-4.294.951-7.246.228-9.618-.756zM48.797 19.311c4.59 2.229 6.061-1.899 14.632 3.651-5.688 1.796-10.042 8.802-16.431 7.006 4.589-2.273 4.112-5.629 6.769-7.292-1.703-.241-5.018-.999-4.97-3.365zm104.556 26.475c0-9.127-.32-16.64-.438-19.011.354.103.718.212 1.107.349 6.558 2.288 8.049 10.185 21.584 1.235-7.237.851-7.616-5.314-10.937-5.446 5.023-2.849 5.353-9.383 5.353-9.383-4.217 3.41-13.973 3.597-15.867 4.743-2.519 1.51-5.702 3.365-7.857 4.541-5.629 3.08-1.707 19.744-2.268 25.86-3.036-9.097-9.186-7.729-12.408-12.935-2.421 4.359.143 11.656 1.127 13.732-3.503 2.849-2.549 8.103-1.702 9.53 2.991-2.165 7.616-1.624 9.028 1.998-3.926 2.391-10.499 2.819-14.996-1.53l-1.609 1.801c3.173 4.187 11.114 5.82 17.018 2.44-.034.954-.236 2.032-.625 3.218-3.065 1.609-7.031 2.49-11.557.93.615 4.595 5.875 8 10.888 9.368-1.702 1.328-3.788 1.85-5.304 1.658.954 2.652 1.471 6.214-.517 8.999-2.504-1.658-3.833-3.311-4.782-9.747-.95-6.445-5.589-12.974-9.186-14.317-.192 2.283-.192 1.289.192 2.755 9.565 7.006 4.162 19.651 14.106 24.202 3.651-4.172 3.69-5.643 3.129-9.565 3.597-.954 6.298-3.985 7.242-6.303-3.405 1.614-8.807-1.235-10.322-3.464 5.914-.182 11.405-4.654 17.004-10.509 5.014-5.26 11.7-4.443 11.173-.335 3.454-.512 4.836-5.26 3.69-8.28 5.068-1.609 9.048-5.363 9.624-11.232-6.825 3.409-15.445-2.215-21.89 4.698m8.197 4.925c2.696 2.214 1.806 5.348 1.176 6.052-2.371-4.069-9.943-2.647-17.373 5.737a18.304 18.304 0 0 1-2.057 2.081c.585-10.032-7.631-10.204-10.062-9.181.28-2.893 2.071-4.886 3.026-5.161-2.416-2.804-2.937-6.347-3.213-8.905 4.02 1.747 9.983 6.435 10.982 14.534l2.603-1.752c-.777-14.155-.62-14.101-.718-23.724-.005-1.338.064-4.492 4.344-4.143.177 3.562.723 13.063.541 26.258h1.515c1.373-3.7 6.258-8.01 11.931-7.626 3.877.261 5.21.187 7.439-.797-1.805 4.398-8.432 6.331-10.134 6.627zm-11.134-26.952c2.75-1.983 4.507-2.844 5.924-3.695 2.367.103 6.44-.182 8.91-1.422-2.563 3.134-2.854 4.271-7.021 4.743 5.407.477 7.67 5.299 10.337 6.057-9.014 2.754-9.914-6.205-18.15-5.683zm-33.899 53.136c-.472 0-.891.231-1.156.576a24.155 24.155 0 0 0-1.599-.246l.02-2.913a1.47 1.47 0 0 0 .891-1.348c0-.807-.664-1.471-1.471-1.471a1.47 1.47 0 0 0-1.466 1.471c0 .561.31 1.033.768 1.279l-.03 2.824c-.492-.054-1.004-.103-1.535-.157a1.471 1.471 0 0 0-1.333-.861 1.46 1.46 0 0 0-1.471 1.461 1.46 1.46 0 0 0 1.471 1.466c.517 0 .969-.261 1.23-.679.566.064 1.107.118 1.624.172l-.034 4.285a1.453 1.453 0 0 0-.787 1.294 1.47 1.47 0 0 0 2.942 0c0-.595-.354-1.107-.866-1.338l.039-4.084c.477.064.94.138 1.387.216.197.576.738.994 1.378.994.807 0 1.471-.649 1.471-1.471a1.478 1.478 0 0 0-1.473-1.47m-12.694-.846c-.595 0-1.107.349-1.343.861-.522.054-1.038.103-1.525.157l-.025-2.824a1.467 1.467 0 0 0-.708-2.75c-.817 0-1.466.659-1.466 1.471 0 .6.364 1.122.881 1.348l.03 2.913c-.556.069-1.097.148-1.604.246a1.48 1.48 0 0 0-1.156-.576 1.47 1.47 0 0 0-1.466 1.471 1.464 1.464 0 0 0 2.849.477c.443-.079.9-.153 1.387-.216l.03 4.084a1.47 1.47 0 0 0 .615 2.804 1.47 1.47 0 0 0 1.466-1.466c0-.571-.325-1.048-.792-1.294l-.034-4.285c.522-.054 1.063-.108 1.629-.172.261.418.708.679 1.235.679a1.46 1.46 0 0 0 1.466-1.466 1.46 1.46 0 0 0-1.469-1.462" fill="#fff"/><path d="M123.257 88.585c-.891-5.889-3.011-22.416-3.257-27.941l-2.519.113c.039.945.138 2.189.266 3.631-3.026-.881-6.996-1.51-11.041-1.51-4.039 0-8.005.63-11.026 1.51.128-1.442.221-2.686.261-3.631l-2.524-.113c-.241 5.525-2.367 22.052-3.262 27.941-1.491.595-2.48 2.091-2.48 4.787 0 0 13.727.202 19.031.202 5.309 0 19.041-.202 19.041-.202 0-2.696-.994-4.192-2.49-4.787m-16.551-.138c-2.17 4.172-6.224 4.039-9.747 1.712-1.422-.94-2.883-1.555-4.216-1.766.61-4.108 1.629-11.843 2.352-18.381 4.581-2.066 10.234-2.558 11.611 2.721 1.387-5.279 7.041-4.787 11.616-2.721.733 6.539 1.742 14.273 2.357 18.381-1.328.212-2.79.827-4.216 1.766-3.533 2.328-7.577 2.461-9.757-1.712zm-29.117 6.731c7.911 2.844 16.807 4.645 26.278-.098-1.23 4.221-3.075 6.726-5.397 8.536 1.323 3.316 3.41 7.424 4.266 10.74 2.509 1.658 2.037 4.502 1.614 6.406-.399 1.756-6.16 3.838-8.059 3.267-1.786-.541-1.791-1.368-2.696-1.284-2.509.226-10.322 7.921-17.855.566v-15.823c2.937-1.614 5.397-3.07 6.819-5.151-1.659-1.093-4.025-4.079-4.97-7.159m8.384 7.021c-1.993 3.119-3.941 4.679-7.67 6.8v12.792c4.915 4.359 11.36.571 13.914-.95-.753-1.22-1.038-2.076-1.373-3.547-6.244.664-8.615-2.504-9.894-7.154 0 0 1.137-.748 2.268-1.314 2.18 7.1 6.165 6.101 9.284 5.963 2.037-1.85 4.876-2.465 7.39-2.273-.669-2.844-2.558-6.445-4.448-9.569 1.702-1.082 3.734-2.362 5.117-4.551-8.384 2.991-11.98 1.943-19.09-.044 1.274 1.81 3.026 3.124 4.502 3.847zm14.391 12.679c-1.422-.462-5.86.758-6.347 1.993-.374.95.462 3.129 2.135 4.172.994.615 5.018-.62 5.683-1.579.556-.783-.049-4.119-1.471-4.586zm37.791-9.191c0-4.827-3.493-9.225-8.91-9.225-4.969 0-11.169 2.416-11.547 6.765-7.287 4.261-10.745 8.103-9.663 11.754-2.46 2.642-.566 7.572 6.726 4.443a8.772 8.772 0 0 0-2.647 6.253h24.522c-2.555-13.451 1.519-11.085 1.519-19.99m-7.39-1.422c-1.26-.3-6.667-.6-8.467 3.444-1.038.03-2.16-.384-2.8-1.028-.708.915-1.801 1.51-3.311 1.948 1.309 2.677 3.995 2.219 5.614.94a7.642 7.642 0 0 0-.074 1.141c0 6.583 7.006 8.231 11.321 5.776-.713 2.135-.389 4.836-.093 6.637h-16.959c.285-1.801 2.558-3.892 4.448-5.215l-1.51-2.367c-1.845.802-3.572 1.545-5.565 2.066-4.694 1.225-4.423-2.135.453-3.488v-1.323l-3.129-.054c.758-3.306 7.193-7.518 10.086-8.526-.157-3.582 4.585-4.768 8.384-4.861 4.718-.138 5.825 4.925 5.825 6.49 0 2.096-.546 6.696-3.154 8.138-3.788 2.081-7.016-.797-7.016-3.405 0-2.844 1.968-4.507 5.383-4.123 3.408.364 3.157-1.54.564-2.19zm-.448 47.882v-5.943h-2.667c-.148-6.165-1.619-10.617-4.487-13.57l-.831-.861-.836.861c-2.859 2.952-4.325 7.405-4.477 13.57h-2.568v5.594c-3.301 1.033-5.594 2.775-8.349 4.881l-.093.084 1.412 1.845.093-.079c4.295-3.287 7.134-5.456 14.819-5.456 7.956 0 11.149 3.331 13.412 6.947l1.963-1.235c-1.58-2.544-3.71-5.103-7.391-6.638m-7.985-16.91c1.879 2.509 2.868 6.106 2.991 10.967h-5.978c.124-4.861 1.108-8.458 2.987-10.967zm-5.56 15.97v-2.681h11.213v2.878c-1.614-.423-3.478-.654-5.653-.654-2.155 0-3.965.162-5.56.457z" fill="#fff"/><path d="M128.453 162.918c.541-1.98.059-3.833-.925-4.95-1.004-1.161-2.765-1.899-4.797-1.619l2.239 2.549-3.916 3.299-1.737-2.008s.64-.557 1.56-1.354c-1.363-1.574-3.277-2.927-6.012-2.312-.984 2.613.079 4.69 1.442 6.276.935-.807 1.579-1.36 1.579-1.36l1.712 1.975-4.782 4.031 1.515 1.739 4.664-4.161 1.545 1.768s-.979 1.475.448 3.133c1.082-.937 2.932-2.547 4.005-3.488-1.427-1.638-3.021-.884-3.021-.884l-1.565-1.797 3.813-3.416 2.233 2.579M97.87 135.139c-.61-3.483-4.517-3.872-6.244-2.312-1.732-1.56-5.589-1.171-6.194 2.312-6.209-.925-5.525 4.93-4.748 6.549.704 1.437 2.396 5.378 3.547 7.798-.192.054-.374.103-.536.143-.28 1.373-.33 3.223-.093 4.649.28.089.561.172.836.266-.63 1.889-1.806 4.905-2.445 6.278a9.438 9.438 0 0 0 3.031 1.225s-.241 1.091-.571 2.177c1.702.572 5.023.961 7.193.961 2.185 0 5.501-.389 7.208-.961a31.45 31.45 0 0 1-.576-2.177c1.284-.283 2.18-.711 3.036-1.225-.645-1.373-1.816-4.389-2.455-6.278.276-.093.561-.177.841-.266.236-1.427.192-3.277-.093-4.649a12.61 12.61 0 0 1-.531-.143c1.151-2.421 2.834-6.362 3.538-7.798.776-1.62 1.47-7.474-4.744-6.549m-6.224.383c.241-1.638 4.905-1.963 4.034 1.658-.886 3.675-1.993 7.916-2.839 11.626-.394-.015-.792-.015-1.196-.015-.394 0-.787 0-1.181.015-.856-3.71-1.958-7.951-2.839-11.626-.87-3.621 3.785-3.296 4.021-1.658zm6.125 15.622c.108.536.128 1.255.034 1.796-1.515.443-4.162.669-6.16.669-1.983 0-4.635-.226-6.15-.669a5.136 5.136 0 0 1 .039-1.796c.994-.389 4.935-.566 6.111-.566 1.182 0 5.118.177 6.126.566zm-14.932-10.411c-1.402-3.316 1.943-4.167 2.657-2.234 1.023 2.79 2.234 7.252 3.262 10.367-.876.044-1.732.128-2.509.226-.443-1.122-1.9-4.797-3.41-8.359zm16.015 19.046c-.807.278-1.855.653-2.844.754.187.802.379 1.605.517 2.177-1.323.278-3.454.428-4.881.428-1.417 0-3.552-.149-4.871-.428l.522-2.177c-.999-.101-2.037-.476-2.844-.754.418-1.437 1.068-2.859 1.599-4.842 1.806.413 3.567.571 5.594.571 2.037 0 3.798-.157 5.599-.571.541 1.983 1.181 3.405 1.609 4.842zm1.604-19.046a435.282 435.282 0 0 0-3.405 8.359 33.643 33.643 0 0 0-2.514-.226c1.028-3.114 2.248-7.577 3.267-10.367.713-1.934 4.054-1.082 2.652 2.234zM86.49 106.071c1.796.472 2.775.113 4.502 0 .704-.044 2.165.418 1.796 2.278-.187.93.143 1.422.418 2.081-1.51-.187-2.977.467-4.162-.098-1.639-.783-1.324-3.031-2.554-4.261m100.536-19.415c-.472 5.683-4.881 14.298-9.988 18.662l3.311-.049c3.503-3.37 9.373-9.525 10.234-20.787 0 0-2.278 1.372-3.557 2.174m-19.139-12.118c.477-.674.325-1.815 1.938-2.239 1.466-.369 1.569.708 2.189.856.846.192.615.108.133.807-.467.704-.325 1.801-1.786 1.938-1.619.162-1.442-.689-2.253-.689-.91.001-.836-.245-.221-.673" fill="#fff"/><path d="M223.247 79.173c-.748.197-2.504.708-3.641.846 2.175-2.13 3.508-4.733 3.508-6.913-1.043.335-2.942 1.048-4.645 1.432 3.41-2.898 5.255-6.258 4.453-10.721-1.043.536-2.519 1.383-3.98 1.998 2.982-4.595 2.937-8.62 1.707-10.986-1.324 1.23-2.942 2.691-4.64 3.744 1.082-5.304 1.033-8.713-1.181-11.075-2.273 4.251-4.216 7.419-7.39 11.208.236-3.503-.143-7.857-2.426-10.125 0 0-.654 4.876-2.362 6.44-.423-4.782-1.889-7.395-4.074-9.953 0 0-.148 4.979-1.506 8.059-1.146-4.172-3.277-7.39-6.027-10.48.192 9.2-2.357 26.529-9.747 38.18-.856 6.908-1.614 17.284-12.881 23.439-1.614-1.132-4.462-2.598-8.482-2.367-1.043-5.2 5.776-9.934 11.651-13.737 5.943-3.823 8.512-7.1 8.379-12.216-.133-5.579-3.926-7.877-7.857-8.049-5.54-.226-10.042 4.787-11.09 6.873-1.604.753-6.342 2.229-8.28 2.74-2.15.576-4.595 1.466-6.106 2.745.895.571 3.498.758 4.497.635 1.875-.285 7.862-1.383 13.589-2.101 2.086 1.132 5.447 3.031 1.894 5.501-4.876 3.124-6.952 3.926-13.83 7.523-10.844 5.683-7.336 19.98-4.679 21.033 0 4.822 4.305 13.55 7.232 16.581 1.333 6.057-.413 15.1-2.268 18.849-1.506-3.69-4.118-12.231-5.825-17.205 1.752-9.412-1.087-13.535-3.08-15.144-1.983-1.614-5.107-1.186-7.149 2.086 3.134-.344 4.177 3.661 4.108 7.808-.084 4.969-1.343 8.964-4.812 8.994.276 4.256 4.871 5.456 7.149 3.415.359.945 2.194 6.544 3.946 11.518 1.023 2.942 2.032 5.683 2.681 7.085.733 1.589 6.012 1.82 6.632 0 .827-2.431 1.496-4.266 2.819-7.085 1.004-2.16 2.386-4.915 4.522-8.959 1.422 2.46 3.316 6.322 4.403 8.959.517 1.235.861 2.199.9 2.637.423 4.089.182 18.465-.9 27.09-11.847-3.232-15.198 2.563-14.165 6.873 1.707-1.909 3.931-1.663 5.304-.664-.33 3.169.526 5.437 3.754 6.386 3.405-8.999 15.616-7.001 16.753-6.253.054-1.747 1.702-6.111-4.595-7.006.236-7.779 1.043-17.289 1.333-19.277.29-1.978.517-3.223-.433-6.337-.28-.94-.62-2.086-.979-3.449-.817-3.149-1.653-7.272-1.712-11.7 1.082 1.082 3.69 1.943 5.491 1.545 1.373 5.879 3.355 4.182 4.408 6.637.531 1.264.649 2.46.797 3.518.138 1.009.3 1.919.861 2.691 4.197.128 7.774-.895 10.342-2.691a10.813 10.813 0 0 0 2.052-1.865c-1.038-6.248-2.79-9.324-6.057-13.102-.856-5.132-3.247-9.811-6.529-13.948 4.133-1.368 8.32-4.708 10.509-7.041 1.993-.148 4.266-1.791 4.448-5.018 1.141-.143 2.135-.192 3.031-.389-.089-.895-.325-2.219-.472-3.026 1.52 0 2.986-.039 4.403-.182a36.405 36.405 0 0 0-1.368-3.316c1.52 0 3.405-.108 4.92-.192-.802-1.506-1.412-2.839-1.899-4.172 1.756-.192 4.467-.61 6.681-1.137-.704-.758-1.51-1.51-2.745-2.696 5.771-1.697 8.285-5.727 8.571-7.478-.846 0-2.603.369-3.636.285 3.216-1.901 5.396-4.513 5.72-7.298m-29.973-26.342c1.422 2.371 2.509 6.637 2.509 10.244 1.806-1.806 2.991-4.748 3.597-6.878.807 1.614.713 5.879.526 7.779 2.027-1.707 3.316-4.074 4.541-6.494.246 1.747.285 3.277 0 4.984-4.354 4.625-11.503 10.795-19.036 17.077 4.085-8.419 6.633-15.43 7.863-26.712zm-36.403 96.915a34.537 34.537 0 0 0-1.432 4.861c-.335 1.555-3.788 1.176-4.266 0a518.677 518.677 0 0 1-1.894-4.861c-1.983-5.181-4.684-12.531-5.348-15.636-1.373 2.219-2.839 3.405-4.408 1.988 5.643-2.519 3.651-17.722 1.471-18.475 2.696-2.416 5.727 6.775 3.975 13.648 1.683 4.768 4.999 14.504 6.327 18.475.285.851.477 1.422.546 1.658.379 1.22 1.943 1.117 2.312 0 .123-.418.295-.974.522-1.658 1.299-4.236 3.995-13.299 3.552-18.957 2.657.482 3.419 2.932 4.359 6.066-2.193 5.275-4.235 8.896-5.716 12.891zm59.183-60.91c-1.373 1.506-5.737 3.316-10.947 3.547 1.043 1.092 2.75 1.899 3.892 2.465-1.466.33-3.552.384-5.402.472.851 1.471 2.13 3.36 2.603 4.162-1.466 0-2.839-.089-4.546-.182.856 1.604 1.048 2.317 1.806 3.646-1.137 0-3.316.039-4.502-.143.379 1.092 1.038 2.554 1.383 3.41-.674 0-1.761 0-2.431.049-5.014 6.962-12.069 14.298-25.333 13.584.384 1.146.664 2.332.763 2.332 1.978.098 5.929-.256 8.851-.743 2.017 2.239 5.668 7.611 7.582 15.793 1.466.905 3.793 4.92 4.925 10.042-2.367 1.373-4.497 2.032-7.572 2.357-1.141-6.519-4.502-6.745-6.111-12.157-2.278.29-5.545-1.461-6.445-4.645h-2.982c-.581 6.263.797 12.02 1.934 16.92.526 2.322 1.009 4.438 1.186 6.327.379 3.808-1.171 18.524-1.23 24.59 2.8-.098 4.93.605 4.831 2.932-4.408-1.373-12.025-.526-15.626 5.451-.851-.482-1.417-2.952.044-3.69-1.707-1.845-3.173-3.134-6.288-2.248 1.324-2.204 4.448-3.636 13.82-1.26.95-3.223 1.801-23.774 1.614-28.202.02-.738-.423-2.106-1.127-3.902h-.005c-2.258-5.712-7.228-15.528-8.394-22.175-1.609 0-3.975.33-4.782-.472-2.017-2.017-6.435-8.526-7.292-14.873-1.51-2.554-4.039-12.29 3.552-17.752 5.26-3.798 17.363-8.428 17.284-12.846-.044-2.652-4.541-4.63-6.052-5.727-1.525-.851-.964-1.619.325-2.893 7.1-6.952 15.533-.143 10.603 8.295-3.626 6.204-22.017 11.606-17.801 23.257 4.02.32 5.973 1.796 7.474 3.788 3.651-1.279 17.811-7.538 19.188-25.53 3.542-2.224 7.198-4.649 10.657-7.483.659 4.546-.093 33.624-26.332 40.3.708 2.47 6.342 3.183 9.658-1.279 3.228.758 7.109-1.889 7.203-4.399 2.888 0 5.963-3.183 5.491-6.16 3.547-1.186 5.21-5.875 3.7-9.427 3.075-1.373 4.113-5.014 2.74-8.571 2.46-1.663 3.223-5.919 1.137-8.615 1.24-2.278.945-4.177 0-5.688 4.743-4.408 10.795-9.998 14.583-16.812.29 4.694-2.18 8.581-5.023 12.831 5.023-3.218 6.17-3.98 9.284-6.44-.9 5.353-7.05 10.273-9.181 12.694 2.927-1.176 7.39-3.316 10.75-5.122-2.893 5.889-7.911 9.24-10.893 11.08 4.128-.753 7.05-1.363 9.747-2.312-2.411 2.701-6.908 5.727-12.015 7.242 4.118-.089 7.375-.571 10.932-1.609-2.647 2.75-6.529 5.363-11.085 5.924 4.65.005 5.491.339 9.855-.133z" fill="#fff"/><path d="M191.193 142.907c-.187-.659-1.043-1.52-2.076-3.119-1.191.285-2.421.369-3.99.285.95 2.081.95 3.306.95 3.223 1.426.29 3.217.084 5.116-.389" fill="#fff"/><defs><path id="c" d="M0 0h640v208.561H0z"/></defs><clipPath id="d"><use xlink:href="#c" overflow="visible"/></clipPath><path d="M183.71 192.966c-1.589.471-3.493.759-6.391.759h-3.597c-12.315-.245-24.989-3.916-32.748-11.844 10.731-10.849-1.87-19.743-8.694-10.561-2.13 2.873-3.828 4.906-5.304 7.683-1.196 2.239-.29 4.507 2.367 7.957 1.466 1.903 5.097 4.838 8.064 6.765H75.823c2.972-1.927 6.593-4.862 8.064-6.765 2.657-3.45 3.562-5.718 2.371-7.957-1.476-2.777-3.178-4.809-5.309-7.683-6.814-9.182-19.41-.288-8.684 10.561-7.764 7.928-20.433 11.599-32.763 11.844h-3.395c-2.893 0-4.812-.288-6.401-.759-2.558-.615-3.124.481-1.752 4.872.95 2.946 1.707 7.736 2.032 11.017h153.442c.33-3.282 1.087-8.072 2.032-11.017 1.374-4.391.808-5.487-1.75-4.872m-48.02-21.256c2.007-2.686 4.94-1.989 6.16.278 1.289 2.407-.595 5.357-3.129 7.668-3.498-3.78-3.877-6.817-3.031-7.946zm-5.112 12.584c-1.245-1.739-1.673-2.753-1.018-4.425.625-1.643 1.929-3.104 3.301-5.146 2.145 8.36 14.755 16.35 24.084 19.003h-14.854c-3.838-2.09-8.694-5.478-11.513-9.432zM71.38 171.989c1.23-2.268 4.157-2.964 6.16-.278.856 1.129.472 4.166-3.031 7.947-2.539-2.312-4.423-5.262-3.129-7.669zm9.004 2.734c1.368 2.042 2.667 3.503 3.287 5.146.654 1.672.236 2.686-1.014 4.425-2.814 3.954-7.68 7.342-11.518 9.432H56.29c9.324-2.653 21.944-10.643 24.094-19.003zm100.388 31.725H32.649c-.669-4.723-1.565-7.74-2.371-10.296h152.866c-.812 2.556-1.707 5.574-2.372 10.296z" clip-path="url(#d)" fill="#fff"/><path d="M52.713 203.076c.044 0 .074.019.089.062l.413 1.105c.039.106-.02.183-.079.202-.093 0-.123.029-.123.087 0 .053.103.053.261.072.704.01 1.348.01 1.658.01.33 0 .399-.01.399-.082 0-.077-.044-.087-.108-.087-.103 0-.241 0-.364-.038-.192-.038-.443-.149-.777-.947-.561-1.336-1.963-4.915-2.18-5.386-.089-.221-.133-.293-.221-.293-.079 0-.133.092-.241.351l-2.209 5.497c-.168.452-.332.754-.742.798-.065.019-.187.019-.269.019-.07 0-.103.029-.103.087 0 .072.053.082.163.082.454 0 .942-.029 1.035-.029.276 0 .649.029.935.029.098 0 .148-.01.148-.082 0-.058-.025-.087-.133-.087h-.135c-.271 0-.349-.115-.349-.264 0-.101.044-.327.128-.553l.182-.457c.025-.077.039-.096.079-.096h2.543m-2.366-.433c-.03 0-.044-.019-.03-.062l1.097-2.936c.01-.014.025-.058.054-.058.025 0 .03.043.039.058l1.082 2.955c.015.024 0 .043-.039.043h-2.203zm6.75-.841c0 1.273.335 1.927.782 2.33.64.577 1.486.601 1.948.601.576 0 1.205-.096 1.825-.634.743-.634.836-1.662.836-2.643v-.942c0-1.331 0-1.576.015-1.864.01-.293.084-.457.325-.495.103-.019.153-.024.256-.024s.153-.019.153-.077c0-.067-.059-.072-.182-.072-.335 0-.895.015-.999.015-.01 0-.566-.015-1.009-.015-.128 0-.187.005-.187.072 0 .058.054.077.153.077.093 0 .246.005.315.024.285.067.359.202.379.495.015.288.015.533.015 1.864v1.105c0 .903-.02 1.701-.507 2.172-.354.346-.827.471-1.21.471-.3 0-.699-.024-1.097-.37-.433-.341-.684-.874-.684-2.148v-1.23c0-1.331 0-1.576.01-1.864.025-.293.093-.457.33-.495.108-.019.162-.024.256-.024.089 0 .138-.019.138-.077 0-.067-.054-.072-.197-.072-.305 0-.861.015-1.068.015-.266 0-.822-.015-1.284-.015-.133 0-.197.005-.197.072 0 .058.054.077.143.077.133 0 .28.005.349.024.29.067.359.202.374.495.02.288.02.533.02 1.864l-.001 1.288m9.117.255c0 .812 0 1.508-.054 1.878-.034.245-.074.447-.251.471a1.345 1.345 0 0 1-.315.038c-.108 0-.148.029-.148.087 0 .053.069.082.182.082.349 0 .905-.029 1.102-.029.448 0 1.23.106 1.87.106 1.624 0 2.539-.629 2.942-1.043.492-.509.959-1.331.959-2.46 0-1.028-.418-1.763-.856-2.196-.95-1.009-2.421-1.009-3.513-1.009-.531 0-1.082.015-1.353.015-.246 0-.802-.015-1.264-.015-.133 0-.197.005-.197.072 0 .058.054.077.153.077.123 0 .276.005.344.024.28.067.359.202.369.495.03.288.03.533.03 1.864v1.543m1.092-1.672c0-.692 0-1.465.005-1.754 0-.106.03-.149.108-.192.074-.038.399-.062.571-.062.684 0 1.678.106 2.485.889.379.365.846 1.067.846 2.191 0 .898-.177 1.715-.733 2.172-.526.471-1.122.648-2.022.648-.694 0-1.033-.197-1.146-.341-.069-.106-.093-.457-.103-.692-.005-.149-.01-.831-.01-1.754l-.001-1.105zm10.967 2.691c.044 0 .069.019.089.062l.408 1.105c.039.106-.02.183-.084.202-.089 0-.118.029-.118.087 0 .053.103.053.261.072.704.01 1.343.01 1.663.01.325 0 .399-.01.399-.082 0-.077-.044-.087-.113-.087-.108 0-.236 0-.369-.038-.187-.038-.438-.149-.772-.947-.556-1.336-1.963-4.915-2.175-5.386-.089-.221-.143-.293-.221-.293-.084 0-.138.092-.246.351l-2.204 5.497c-.172.452-.335.754-.738.798-.074.019-.197.019-.28.019-.069 0-.103.029-.103.087 0 .072.054.082.162.082.462 0 .945-.029 1.043-.029.266 0 .649.029.93.029.098 0 .143-.01.143-.082 0-.058-.02-.087-.128-.087h-.133c-.271 0-.344-.115-.344-.264 0-.101.039-.327.128-.553l.177-.457c.02-.077.039-.096.079-.096h2.546m-2.371-.433c-.034 0-.039-.019-.034-.062l1.102-2.936c.01-.014.025-.058.049-.058.025 0 .034.043.044.058l1.092 2.955c.005.024 0 .043-.049.043h-2.204zm10.947-3.772c.271-.389.438-.634.64-.677.128-.043.231-.062.315-.062.093 0 .148-.019.148-.077s-.064-.072-.157-.072c-.325 0-.689.015-.861.015-.167 0-.536-.015-.881-.015-.123 0-.182.015-.182.072 0 .058.054.077.103.077.069 0 .192 0 .285.024.079.038.143.101.143.168 0 .053-.02.202-.089.322-.138.245-.945 1.475-1.2 1.85-.335-.582-.733-1.23-1.117-1.932a.8.8 0 0 1-.079-.24c0-.067.025-.13.098-.154a.675.675 0 0 1 .241-.038c.074 0 .133-.019.133-.077 0-.067-.059-.072-.182-.072-.325 0-.807.015-.935.015-.418 0-1.122-.015-1.333-.015-.123 0-.177.005-.177.053 0 .077.034.096.084.096.093 0 .231.019.374.062.31.101.512.293.728.658l1.51 2.493-1.673 2.407c-.305.413-.467.577-.723.648-.133.043-.266.043-.325.043-.074 0-.123.029-.123.101 0 .038.039.067.138.067h.143c.138 0 .576-.029.738-.029.216 0 .772.029.817.029h.167c.113 0 .177-.01.177-.067 0-.072-.059-.101-.108-.101-.069 0-.148 0-.207-.019-.074-.019-.157-.058-.162-.149-.015-.096.039-.221.123-.36l1.294-2.095c.403.658.905 1.533 1.397 2.378.059.111.02.202-.02.202-.079.024-.123.043-.123.111 0 .053.064.072.295.091.674.01 1.373.01 1.579.01h.261c.093 0 .167-.029.167-.082 0-.058-.054-.087-.108-.087-.089 0-.192 0-.339-.043a.91.91 0 0 1-.507-.384c-.216-.264-1.643-2.652-1.924-3.08l1.437-2.065m14.347 4.205c.039 0 .074.019.084.062l.399 1.105c.044.106-.02.183-.079.202-.089 0-.123.029-.123.087 0 .053.108.053.261.072.704.01 1.343.01 1.658.01.33 0 .408-.01.408-.082 0-.077-.044-.087-.118-.087-.108 0-.231 0-.364-.038-.192-.038-.443-.149-.772-.947-.566-1.336-1.973-4.915-2.175-5.386-.093-.221-.143-.293-.226-.293-.079 0-.133.092-.241.351l-2.199 5.497c-.182.452-.344.754-.748.798-.074.019-.197.019-.276.019-.074 0-.108.029-.108.087 0 .072.059.082.172.082.453 0 .935-.029 1.038-.029.266 0 .645.029.925.029.103 0 .153-.01.153-.082 0-.058-.03-.087-.133-.087h-.133c-.276 0-.354-.115-.354-.264 0-.101.049-.327.133-.553l.187-.457c.02-.077.034-.096.084-.096h2.547m-2.377-.433c-.039 0-.044-.019-.039-.062l1.097-2.936c.01-.014.03-.058.049-.058.03 0 .039.043.054.058l1.117 2.955c.01.024 0 .048-.049.048l-2.229-.005zm7.764-.586c0 .812 0 1.508-.039 1.878-.025.245-.079.447-.251.471a1.393 1.393 0 0 1-.32.038c-.103 0-.143.029-.143.087 0 .053.064.082.177.082.349 0 .9-.029 1.102-.029.246 0 .802.029 1.383.029.093 0 .162-.029.162-.082 0-.058-.039-.087-.138-.087-.133 0-.33-.019-.448-.038-.266-.024-.32-.226-.339-.471-.044-.37-.044-1.067-.044-1.878v-3.594l1.102.019c.782.019 1.023.264 1.038.509l.01.087c.01.139.03.183.093.183.059 0 .069-.058.084-.149 0-.226.03-.831.03-.999 0-.144-.01-.187-.074-.187-.074 0-.285.072-.841.072h-3.474c-.29 0-.625-.015-.881-.048-.221-.019-.305-.111-.374-.111-.059 0-.084.072-.108.192-.01.062-.187.855-.187.99 0 .11.025.144.079.144s.084-.034.098-.106c.02-.062.059-.173.148-.312.133-.183.344-.226.856-.259l1.299-.024v3.593m15.272-.711c0-.038.015-.072.064-.072.143 0 1.073 0 1.294.033.28.024.403.183.448.312a.763.763 0 0 1 .049.264c0 .067.025.125.084.125.084 0 .084-.082.084-.173 0-.038.01-.466.034-.648.025-.25.069-.476.069-.528 0-.043-.02-.087-.049-.087-.054 0-.074.048-.118.101-.089.111-.212.144-.384.163h-.389l-1.122.019c-.054 0-.064-.038-.064-.091v-2.186c0-.11.03-.139.084-.139l1.353.029c.325.014.512.144.581.274.044.125.044.269.044.332.015.092.025.144.089.144s.084-.058.089-.139c.02-.087.025-.615.034-.702.034-.226.084-.341.084-.394s-.034-.072-.069-.072-.084.019-.138.038c-.089.033-.192.033-.364.038-.197.01-1.983.01-2.312.01-.251 0-.807-.015-1.264-.015-.128 0-.202.005-.202.092 0 .038.059.058.153.058.118 0 .266.005.344.024.285.067.364.202.374.495.025.288.025.533.025 1.864v1.542c0 .85 0 1.508-.054 1.878-.034.245-.074.447-.251.471a1.322 1.322 0 0 1-.32.038c-.098 0-.128.029-.128.087 0 .072.059.082.177.082.339 0 .895-.029 1.112-.029.241 0 .792.029 1.338.029.138 0 .197-.029.197-.082 0-.058-.039-.087-.148-.087-.123 0-.315-.019-.438-.038-.266-.024-.32-.226-.344-.471-.044-.37-.044-1.028-.044-1.878v-.711m5.617.711c0 .869 0 1.566-.039 1.922-.025.259-.084.403-.266.428a1.264 1.264 0 0 1-.31.038c-.108 0-.138.029-.138.087 0 .053.059.082.172.082.349 0 .905-.029 1.107-.029.231 0 .797.029 1.368.029.098 0 .172-.029.172-.082 0-.058-.044-.087-.148-.087a3.41 3.41 0 0 1-.448-.038c-.261-.024-.32-.183-.344-.413-.039-.37-.039-1.067-.039-1.936v-1.542c0-1.331 0-1.576.02-1.864.02-.293.084-.457.325-.495.108-.019.172-.024.271-.024.079 0 .128-.019.128-.096 0-.048-.064-.053-.182-.053-.325 0-.846.015-1.073.015-.251 0-.807-.015-1.137-.015-.143 0-.207.005-.207.053 0 .077.044.096.138.096.103 0 .221.005.315.038.192.043.276.187.295.481.02.288.02.533.02 1.864v1.541m5.244 0c0 .812 0 1.508-.049 1.878-.034.245-.079.447-.251.471a1.357 1.357 0 0 1-.32.038c-.103 0-.143.029-.143.087 0 .053.069.082.182.082.354 0 .91-.029 1.102-.029.443 0 1.235.106 1.875.106 1.619 0 2.539-.629 2.947-1.043.482-.509.95-1.331.95-2.46 0-1.028-.408-1.763-.856-2.196-.954-1.009-2.416-1.009-3.513-1.009-.526 0-1.087.015-1.353.015-.241 0-.797-.015-1.264-.015-.138 0-.197.005-.197.072 0 .058.059.077.153.077.118 0 .271.005.344.024.285.067.359.202.384.495.01.288.01.533.01 1.864l-.001 1.543m1.102-1.672v-1.754c0-.106.03-.149.108-.192.069-.038.399-.062.576-.062.679 0 1.688.106 2.49.889.369.365.841 1.067.841 2.191 0 .898-.177 1.715-.738 2.172-.526.471-1.122.648-2.017.648-.699 0-1.038-.197-1.151-.341-.074-.106-.089-.457-.093-.692-.015-.149-.015-.831-.015-1.754v-1.105h-.001zm8.271 1.672c0 .812 0 1.508-.044 1.878-.034.245-.074.447-.251.471a1.345 1.345 0 0 1-.315.038c-.108 0-.143.029-.143.087 0 .053.064.082.177.082.354 0 .905-.029 1.107-.029.512 0 1.102.053 2.426.053.335 0 .423 0 .472-.236.049-.163.118-.773.118-.961 0-.087 0-.178-.069-.178-.064 0-.079.058-.093.139-.069.351-.172.553-.399.653-.226.092-.6.092-.827.092-.895 0-1.033-.13-1.048-.726-.015-.25 0-1.067 0-1.364v-.692c0-.038 0-.077.049-.077.212 0 1.077.019 1.25.038.325.019.448.149.487.327.025.125.025.226.039.298 0 .058.015.091.079.091.079 0 .079-.091.079-.163 0-.058.015-.423.03-.572.025-.452.069-.61.069-.648 0-.053-.025-.087-.064-.087-.034 0-.069.062-.133.12-.079.092-.212.106-.423.144-.207.019-1.215.019-1.402.019-.059 0-.059-.058-.059-.106v-2.224c0-.062.015-.087.059-.087.167 0 1.092.024 1.245.029.443.058.522.163.581.322.049.101.064.25.064.322s.015.125.069.125c.064 0 .084-.072.089-.106.025-.11.034-.499.044-.572.03-.408.079-.523.079-.577 0-.053-.02-.072-.064-.072-.034 0-.093.014-.138.019a1.518 1.518 0 0 1-.379.058c-.157.01-1.909.01-2.194.01-.236 0-.787-.015-1.255-.015-.133 0-.192.005-.192.072 0 .058.044.077.148.077.123 0 .266.005.335.024.295.067.364.202.384.495.015.288.015.533.015 1.864v1.545m7.914-1.542c0-1.331 0-1.576.01-1.864.015-.293.093-.457.32-.495.118-.019.256-.024.349-.024.103 0 .153-.019.153-.077 0-.067-.059-.072-.182-.072-.339 0-.974.015-1.191.015-.241 0-.792-.015-1.2-.015-.133 0-.187.005-.187.072 0 .058.049.077.138.077.123 0 .226.005.29.024.295.067.364.202.384.495.02.288.02.533.02 1.864v1.542c0 .812 0 1.508-.054 1.878-.025.245-.069.447-.251.471a1.31 1.31 0 0 1-.315.038c-.108 0-.148.029-.148.087 0 .053.064.082.182.082.349 0 .9-.029 1.107-.029.704 0 1.289.053 2.553.053.462 0 .497-.034.556-.236.064-.264.128-.903.128-1.014 0-.106-.005-.144-.074-.144-.064 0-.084.038-.089.139-.025.149-.123.394-.231.509-.216.24-.566.245-1.028.245-.684 0-.915-.058-1.058-.183-.182-.163-.182-.764-.182-1.898v-1.54m5.467 1.542c0 .869 0 1.566-.034 1.922-.034.259-.089.403-.261.428a1.31 1.31 0 0 1-.315.038c-.103 0-.138.029-.138.087 0 .053.064.082.172.082.359 0 .905-.029 1.107-.029.231 0 .792.029 1.378.029.079 0 .162-.029.162-.082 0-.058-.044-.087-.153-.087-.128 0-.305-.019-.443-.038-.261-.024-.325-.183-.349-.413-.034-.37-.034-1.067-.034-1.936v-1.542c0-1.331 0-1.576.015-1.864.02-.293.098-.457.325-.495a1.45 1.45 0 0 1 .266-.024c.093 0 .143-.019.143-.096 0-.048-.064-.053-.182-.053-.335 0-.851.015-1.068.015-.261 0-.807-.015-1.141-.015-.148 0-.221.005-.221.053 0 .077.059.096.148.096a.95.95 0 0 1 .31.038c.192.043.29.187.3.481.015.288.015.533.015 1.864v1.541m6.049 2.676c.462 0 .959-.077 1.392-.365.64-.394.831-1.009.831-1.518 0-.841-.394-1.417-1.447-2.234l-.241-.192c-.723-.548-.93-.855-.93-1.263 0-.528.394-.903 1.033-.903.581 0 .832.264.959.428.192.226.231.5.231.582 0 .11.034.144.093.144.069 0 .093-.053.093-.25 0-.692.039-.937.039-1.047 0-.077-.044-.082-.128-.115a3.884 3.884 0 0 0-1.161-.159c-1.23 0-2.032.707-2.032 1.682 0 .687.33 1.317 1.299 2.062l.403.322c.733.562.861.966.861 1.417 0 .457-.389.985-1.176.985-.541 0-1.063-.226-1.25-.884a1.696 1.696 0 0 1-.089-.452c0-.062-.01-.144-.084-.144-.069 0-.098.106-.103.231-.015.134-.044.673-.044 1.143 0 .202.025.245.157.312.389.141.787.218 1.294.218M135.169 24.285c.069-1.314-2.367-2.312-2.977-2.367-1.023-.069-2.327 2.076-3.656 3.415-1.181-6.308-.566-9.009.098-11.798 2.657 4.827 6.253 5.875 8.143 5.633-6.391-5.122-5.289-9.752-7.237-9.998-1.117-.128-1.904-.044-2.465-.044-2.253 0-2.563 4.359-2.844 6.357-1.461-2.711-2.888-4.979-5.353-8.098-2.362-6.066-5.255-4.561-8.187-7.296 2.268 3.449.423 5.584 5.732 8.098 1.368 1.314 2.982 3.355 4.064 5.014-.891 1.181-1.491 1.87-2.317 2.652-.659.999-.989 4.733-3.031 7.577 3.031-1.319 4.212-3.159 5.304-4.974 9.56 7.213 1.781 25.648-.413 29.707-2.111-1.427-4.797-2.224-7.267-2.657l-.246-.827-2.244-7.277h1.033c1.205 0 1.476-.807 1.284-1.437l6.608 2.037 2.918.895-1.796-2.48-3.07-4.221 3.07-4.226 1.796-2.485-2.918.905-5.939 1.83c-.423-1.343-1.53-1.998-2.745-2.165l2.007-6.736.861-2.893-2.44 1.771-4.236 3.07-4.226-3.07-2.435-1.771.856 2.893 2.002 6.736c-1.21.167-2.317.822-2.745 2.165l-5.934-1.83-2.923-.905 1.801 2.485 3.06 4.226-3.06 4.221-1.801 2.48 9.55-2.932c-.197.63.059 1.437 1.269 1.437h1.028l-2.239 7.277-.261.827c-2.524.453-5.289 1.264-7.415 2.77-6.445-12.502-4.625-25.151.782-29.343-.098 2.652 2.229 6.248 3.316 7.006-.713-2.75.526-7.636-.9-8.856-.994-.846-2.514-1.284-4.123-1.23 1.092-1.806 2.603-4.064 5.166-7.434 3.788-1.796 4.881-6.214 5.825-8.418-4.123 1.496-7.149 3.646-7.813 7.1-1.471 1.934-3.08 4.212-4.881 6.908.093-3.277-1.702-4.399-4.079-4.586-6.957 1.456-6.431 6.48-12.399 9.939 4.074 1.422 10.47-7.523 12.645-6.544.33 5.491-.895 9.806-.895 12.802-1.048-1.141-1.579-1.943-2.465-2.106-.856-.128-3.178.064-4.787 1.82-.438 2.765-.325 7.99-2.932 14.248 3.877-3.552 5.722-10.519 6.337-12.546.999 1.373 2.086 4.369 2.327 6.952.462 4.989 3.533 13.299 6.145 17.304-.713 1.402-.935 2.962-.674 4.694-2.037 1.506-2.268 3.606-1.565 5.028.758 1.515 2.74 2.549 5.082 1.624l.748-.305c2.455-1.028 7.055-2.923 12.61-2.923 5.565 0 10.155 1.894 12.625 2.923l.733.305c2.347.925 4.33-.108 5.082-1.624.718-1.422.482-3.523-1.555-5.028.285-1.865-.015-3.538-.866-5.014l.084.074c4.758-6.765 5.073-19.71 8.999-23.4.33 4.551 2.75 8.29 5.117 8.797-1.901-3.12-1.901-9.319-1.753-12.158m-21.786 6.032l3.493-1.082-1.707 2.357-.438.605.438.59 1.707 2.362-4.423-1.363c.388-.94.718-1.964.93-3.469zm-16.837 4.831l1.707-2.362.438-.59-.438-.605-1.707-2.357 3.498 1.082c.202 1.506.531 2.529.925 3.469l-4.423 1.363zm13.929-1.161H107.7l.335-4.925c4.172-1.84 3.788 1.993 2.44 4.925zm-.807 8.369l-2.362-1.712-.6-.438-.595.438-2.352 1.712 1.525-4.954h2.849l1.535 4.954zm-3.557-19.001l.595.438.6-.438 2.396-1.747-1.373 4.645c-.044.015-.093.025-.143.049a1.594 1.594 0 0 0-1.481-.969c-.659 0-1.23.389-1.476.969-.039-.025-.089-.034-.138-.049l-1.378-4.645 2.398 1.747zm-3.169 10.632c-1.353-2.932-1.722-6.765 2.44-4.925l.335 4.925h-2.775zm3.764 8.748l3.311 2.396a39.24 39.24 0 0 0-3.311-.153c-.713 0-1.894.03-3.306.153l3.306-2.396zm-13.579 17.26l-.713.3c-.974.374-1.648.064-1.884-.413-.251-.492-.108-1.343 1.112-2.081.157-.089.33-.182.497-.285l2.327 1.929c-.493.195-.951.382-1.339.55zm7.946-2.549l-2.45-2.396a35.078 35.078 0 0 1 6.17-.974l1.466 2.809a29.611 29.611 0 0 0-5.186.561zm13.456.512l-1.422-3.287c2.145.443 4.221 1.053 6.042 1.82l.831 3.375c-1.348-.56-3.208-1.293-5.451-1.908zm-7.823-6.475c-4.585 0-9.761 1.087-13.752 2.824a4.048 4.048 0 0 1 .945-2.332c2.312-2.79 8.344-3.779 12.807-3.779 4.472 0 10.504.989 12.812 3.779.566.679.881 1.451.94 2.327-3.981-1.751-9.083-2.819-13.752-2.819z" fill="#fff"/><defs><path id="e" d="M0 0h640v208.561H0z"/></defs><clipPath id="f"><use xlink:href="#e" overflow="visible"/></clipPath><path d="M73.938 124.398c.62-5.299-.231-5.702-1.756-6.947-1.323-1.102-3.508-1.446-5.678-2.942-1.565-1.092-1.988-2.652-3.98-4.738.472-5.446 6.347-12.128 8.335-11.129l.049-2.706c-2.558-.856-7.109 1.614-10.986 10.804-.428-.477-.807-.669-1.235-.959.295-2.121-.413-3.882-1.742-5.496 1.348-.891 5.338-2.755 7.611-4.394 2.553-1.84 3.036-2.603 6.165-1.85 0 0 .566-.664.758-1.422-2.278-2.923-5.594-2.086-7.857.581-1.791 1.437-5.865 4.172-8.664 5.127-3.818-3.218-9.75-6.052-14.074-10.386 0 0 5.732-.054 8.387-1.141.708-.433 2.549-3.365 1.796-6.165-.886-.32-2.176-.974-3.442-1.697-1.559-.881-3.092-1.85-3.788-2.376-2.511-1.899-3.52-3.552-7.827-4.63.283-1.983.706-1.52 2.604-2.8 2.424-1.633 3.762-3.601 4.728-5.545.762-1.51-.092-4.635-2.028-.659-.682 1.392-2.561 3.267-4.692 3.833.166-1.235.235-1.934.235-2.598 6.299-4.453 5.682-8.379 5.216-12.079-.281-2.14-2.419-3.026-2.328-.802.065 1.466 1.374 5.629-2.931 8.098-.098-1.855-.613-2.686-.997-3.646 3.837-5.068 2.222-9.948.615-12.177-1.026-1.422-3.565-1.909-2.414.339.942 1.84 2.462 6.873-.377 8.905-.994-1.23-2.131-1.702-2.513-3.37.283-5.486-.062-8.851-.755-10.8-.668-1.84-2.417-2.982-2.275-.28.159 3.05.43 6.908.144 7.154-.286.231-4.363-3.557-6.017-4.684-1.668-1.151-3.646-.718-1.702 1.56 1.702 1.993 6.91 5.815 6.252 7.05-.418.772-4.147-2.278-6.07-2.932-1.938-.659-2.539.344-.9 1.697 2.657 2.18 4.414 3.601 8.767 5.077 4.358 1.456 6.535 7.503 5.163 16.098-.061.379-.805.335-1.232.187-.205-3.272-.771-7.218-1.562-8.954-1.045-2.278-3.08-2.317-2.321.758.598 2.45.944 5.073.519 8.344-3.599-.615-4.976-1.574-6.487-2.475-.147-1.648.709-4.403.853-6.859.142-2.416-1.28-3.936-2.087-.9-.768 2.898-1.269 4.305-1.752 6.391-1.043-.335-2.125-.807-2.632-1.373-.236-.261-.02-3.552-.251-5.919-.271-2.686-1.284-2.598-2.091-.246-.369 1.097-.664 2.519-.753 4.276-1.279-.758-2.13-2.229-2.273-3.405.187-2.8.659-5.771.994-7.626.236-1.328-.664-4.044-1.707-.763-.753 2.352-.945 4.305-1.422 5.958-.91-.064-2.125-5.383-2.74-8.792-.28-1.56-1.569-3.321-1.801.128-.261 3.793.517 7.631 1.461 9.333-1.845-.182-3.597-3.493-4.871-5.442-1.137-1.737-1.673.064-1.565.753a11.541 11.541 0 0 0 8.95 9.663c3.788 5.451 11.031 7.764 17.146 10.416-7.96-.089-10.046 3.119-13.687 1.038.162 2.991 1.648 4.394 3.085 5.073 1.028.497 2.032.625 2.499.713.664 3.641 4.123 3.449 7.058 3.641-.754 7.1.096 16.482 6.345 23.483-.183 3.606-.421 8.344-.375 11.474-5.112 4.723-9.667 14.676-11.463 20.172-1.348 4.103-3.365 7.301-6.49 8.812 2.558 2.691 6.347 1.373 8.522-.148.148 2.406.713 4.108 1.095 5.545-1.464 2.175-2.463 3.685-2.32 6.337-1.658.482-2.795 1.469-3.7 2.617-.556.711.103 3.969.713 5.343 2.047 4.565.458 14.866.098 17.898.851.053 2.411.111 2.745-1.182.497.471 1.752 1.374 2.322 3.363-.148.846-.62 4.01.991 4.408 1.326.344 7.061.143 7.81-.856-.564-.645-1.557-2.178-2.177-3.696 0-1.562-.134-3.459-.564-4.267-.663-1.129-2.323-3.786-3.361-4.819-.24-1.898-.425-10.273.471-13.506 1.468-1.033 11.56-8.521 13.636-15.665 1.852.61 1.278 5.624 1.278 12.076 0 1.744 2.126 2.643 3.385 2.806 2.727.327 6.61 2.931 10.969 9.355.851-.889 1.938-1.744 1.938-1.744.571.754 1.235 2.599 1.614 3.786.472.889 3.975 1.422 6.677.601.886-.293 1.422-.452 1.993-1.398-3.419-5.982-5.466-9.941-9.855-13.223-2.032-1.533-4.738-2.271-7.011-3.727 1.515-2.854 5.683-16.197 3.173-21.087-.846-1.609-4.025-3.223-7.888-2.504 3.222-3.872 9.787-11.562 10.639-13.919.758.891 4.64.276 7.508 1.402 1.058.403 3.995 4.221 4.143 5.545.246 2.352.379 5.156-1.26 11.601 1.137-.172.974-.226 2.106-.699.192 1.747-.33 3.075-1.84 5.663.379 2.337 1.417 5.934 2.504 6.598 1.471-4.349 6.868-10.514 6.726-14.16-.188-4.863-2.471-9.05-2.225-11.176M21.491 78.937c-.758-.881-1.141-1.924-1.54-2.219 3.029-1.894 6.772-.33 9.045-2.519 1.465.817 3.608-.01 4.548-.138 3.152-.458 7.075 2.814 9.948 4.876 1.226.886 2.268 1.555 2.984 1.604-.805 2.465-.574 2.942 1.513 3.415-.089.723-.706 1.22-3.077.969-2.417-.266-5.259-.212-6.587-.069-7.164 3.72-9.494-2.224-9.47-5.919v-.049a.266.266 0 0 1-.094.049c-4.147 2.322-6.139 1.338-7.27 0zm28.885 58.726c2.539 3.173-1.068 16.335-2.388 18.706-1.184 2.121 1.002 3.514 2.127 3.784 5.26 1.331 10.47 6.357 12.172 10.143l-1.845.74c-3.931-5.333-4.969-3.589-5.968-2.585-.994-1.754-5.727-7.058-8.761-7.356-2.777-.245-2.743-1.931-2.558-3.357.375-2.834.216-6.982-.094-9.225-.379-1.85-1.991-4.034-3.152-4.123.593-1.422-.166-5.929 3.671-7.818 2.847-1.409 6.196.348 6.796 1.091zm21.432 2.799c-.433 0-.807-.143-1.043-.674.841-3.036 1.087-4.645.9-5.264-.713.261-1.23.221-1.56.059.822-4.93.29-7.995-.236-9.904-.571-2.037-3.242-4.876-4.162-5.358-1.476-.792-2.711-1.653-5.594-1.983-5.968-5.014-7.597-1.993-11.844-2.504-.581-.758-1.701-1.796-1.701-1.796l-1.898 1.319s1.804 2.273 2.177 3.793c0 0 3.883-.699 6.825.039-1.141 3.754-6.364 8.817-11.416 14.445-5.401 6.017-5.427 7.355-5.302 12.079.142 5.589-7.577 13.978-13.494 17.913-.505 1.413-1.178 13.814-.387 15.712.413.706 2.088 2.652 3.131 4.214.466.702.339 2.398.569 4.036-.807.096-1.374 0-1.997-.308-.368-1.739-1.797-4.055-4.398-5.713.63-6.928 1.328-10.599-1.092-17.47-.212-.61 3.031-2.417 3.031-2.417s1.095-5.084 4.029-7.539c-2.085-5.348-2.371-12.59-2.371-12.59s-1.254 1.658-3.335 2.986c5.488-17.427 6.602-12.462 13.065-25.196 4.48-20.32-7.315-24.438-5.557-31.498 4.115 3.887 6.251 2.657 9.612 1.712 3.029 2.544 7.433 8.28 11.549 9.702 6.637 2.273 6.588 8.482 5.55 11.37 2.74 0 4.969.999 6.007 2.598 4.654 7.193 7.675 5.018 10.135 8.054 1.181 1.447 0 5.491 1.422 9.097.94 2.367 1.328 5.205 1.328 6.012-.142 1.182-1.712 3.411-1.943 5.074z" clip-path="url(#f)" fill="#fff"/><path d="M36.574 80.452c1.374-.138 2.039-.856 3.267-.384-.147-.408-.843-.408-.992-.758-.017-.123-.031-.251-.046-.379-.158-1.289-.577-2.342-2.657-2.652-.517 1.092-2.367 1.889-3.404 2.509.308.02.557.084.776.143 1.326.459 1.148 1.708 3.056 1.521m105.935 11.68H69.565v26.903c.502.29.984.674 1.442 1.24 1.176 1.446 0 5.491 1.422 9.097.064.162.103.335.167.507h33.038v52.669c-3.818-1.545-11.803-5.328-19.05-12.359-8.95-8.659-13.692-19.252-14.224-31.434-.251.6-.477 1.176-.551 1.702-.433 0-.802-.143-1.038-.674.836-3.036 1.082-4.645.9-5.264-.713.261-1.235.221-1.565.059.827-4.93.29-7.995-.236-9.899a4.658 4.658 0 0 0-.305-.787v12.576c0 13.938 5.097 25.929 15.154 35.651 8.817 8.546 18.711 12.531 21.54 13.545l.448.153.458-.153c2.824-1.014 12.718-4.999 21.54-13.545 10.057-9.722 15.154-21.712 15.154-35.651v-2.248c-.861 1.373-1.756 2.312-2.691 2.46-.054 13.073-4.866 24.369-14.327 33.51-7.242 7.031-15.237 10.814-19.055 12.359v-52.67h33.392v4.861c3.405-4.344 1.855-15.661 0-16.979v9.958H72.251V94.814h68.925v22.691c.94-.654 1.899.01 2.681 1.491V92.133l-1.348-.001" fill="#fff"/></svg>